<svg xmlns="http://www.w3.org/2000/svg" xmlns:xlink="http://www.w3.org/1999/xlink" width="100" zoomAndPan="magnify" viewBox="0 0 75 74.999997" height="100" preserveAspectRatio="xMidYMid meet" version="1.0"><defs><clipPath id="eaf0c48383"><path d="M 50 7.5 L 54 7.5 L 54 16 L 50 16 Z M 50 7.5 " clip-rule="nonzero"/></clipPath><clipPath id="ee4089fe13"><path d="M 0 26 L 61 26 L 61 61.5 L 0 61.5 Z M 0 26 " clip-rule="nonzero"/></clipPath></defs><path fill="#ffcc00" d="M 63.542969 30.835938 C 63.542969 31.617188 63.46875 32.386719 63.316406 33.152344 C 63.167969 33.917969 62.941406 34.660156 62.644531 35.382812 C 62.347656 36.105469 61.984375 36.789062 61.550781 37.4375 C 61.121094 38.085938 60.632812 38.6875 60.082031 39.238281 C 59.535156 39.789062 58.9375 40.28125 58.292969 40.714844 C 57.644531 41.148438 56.964844 41.515625 56.246094 41.8125 C 55.53125 42.113281 54.792969 42.335938 54.03125 42.488281 C 53.269531 42.640625 52.5 42.71875 51.722656 42.71875 C 50.949219 42.71875 50.179688 42.640625 49.417969 42.488281 C 48.65625 42.335938 47.917969 42.113281 47.199219 41.8125 C 46.484375 41.515625 45.800781 41.148438 45.15625 40.714844 C 44.511719 40.28125 43.914062 39.789062 43.367188 39.238281 C 42.816406 38.6875 42.328125 38.085938 41.894531 37.4375 C 41.464844 36.789062 41.101562 36.105469 40.804688 35.382812 C 40.507812 34.660156 40.28125 33.917969 40.132812 33.152344 C 39.980469 32.386719 39.902344 31.617188 39.902344 30.835938 C 39.902344 30.054688 39.980469 29.28125 40.132812 28.515625 C 40.28125 27.753906 40.507812 27.007812 40.804688 26.289062 C 41.101562 25.566406 41.464844 24.882812 41.894531 24.234375 C 42.328125 23.585938 42.816406 22.984375 43.367188 22.433594 C 43.914062 21.882812 44.511719 21.390625 45.15625 20.957031 C 45.800781 20.523438 46.484375 20.15625 47.199219 19.859375 C 47.917969 19.558594 48.65625 19.332031 49.417969 19.179688 C 50.179688 19.03125 50.949219 18.953125 51.722656 18.953125 C 52.5 18.953125 53.269531 19.03125 54.03125 19.179688 C 54.792969 19.332031 55.53125 19.558594 56.246094 19.859375 C 56.964844 20.15625 57.644531 20.523438 58.292969 20.957031 C 58.9375 21.390625 59.535156 21.882812 60.082031 22.433594 C 60.632812 22.984375 61.121094 23.585938 61.550781 24.234375 C 61.984375 24.882812 62.347656 25.566406 62.644531 26.289062 C 62.941406 27.007812 63.167969 27.753906 63.316406 28.515625 C 63.46875 29.28125 63.542969 30.054688 63.542969 30.835938 Z M 63.542969 30.835938 " fill-opacity="1" fill-rule="nonzero"/><g clip-path="url(#eaf0c48383)"><path fill="#ffcc00" d="M 51.722656 7.496094 C 50.867188 7.496094 50.175781 8.328125 50.175781 9.363281 L 50.175781 13.40625 C 50.175781 14.441406 50.867188 15.273438 51.722656 15.273438 C 52.582031 15.273438 53.273438 14.441406 53.273438 13.40625 L 53.273438 9.363281 C 53.273438 8.328125 52.582031 7.496094 51.722656 7.496094 Z M 51.722656 7.496094 " fill-opacity="1" fill-rule="nonzero"/></g><path fill="#ffcc00" d="M 68.144531 14.332031 C 67.535156 13.722656 66.460938 13.820312 65.734375 14.550781 L 62.890625 17.414062 C 62.160156 18.144531 62.0625 19.222656 62.667969 19.832031 C 63.277344 20.441406 64.351562 20.34375 65.078125 19.613281 L 67.925781 16.753906 C 68.652344 16.019531 68.75 14.941406 68.144531 14.332031 Z M 68.144531 14.332031 " fill-opacity="1" fill-rule="nonzero"/><path fill="#ffcc00" d="M 74.945312 30.835938 C 74.945312 29.972656 74.113281 29.28125 73.085938 29.28125 L 69.0625 29.28125 C 68.03125 29.28125 67.203125 29.972656 67.203125 30.835938 C 67.203125 31.699219 68.03125 32.390625 69.0625 32.390625 L 73.085938 32.390625 C 74.113281 32.390625 74.945312 31.699219 74.945312 30.835938 Z M 74.945312 30.835938 " fill-opacity="1" fill-rule="nonzero"/><path fill="#ffcc00" d="M 68.144531 47.339844 C 68.75 46.730469 68.652344 45.652344 67.925781 44.917969 L 65.078125 42.058594 C 64.351562 41.328125 63.277344 41.230469 62.667969 41.839844 C 62.0625 42.449219 62.160156 43.527344 62.890625 44.257812 L 65.734375 47.121094 C 66.460938 47.851562 67.535156 47.949219 68.144531 47.339844 Z M 68.144531 47.339844 " fill-opacity="1" fill-rule="nonzero"/><path fill="#ffcc00" d="M 51.722656 54.175781 C 52.582031 54.175781 53.273438 53.34375 53.273438 52.308594 L 53.273438 48.265625 C 53.273438 47.230469 52.582031 46.398438 51.722656 46.398438 C 50.867188 46.398438 50.175781 47.230469 50.175781 48.265625 L 50.175781 52.308594 C 50.175781 53.34375 50.867188 54.175781 51.722656 54.175781 Z M 51.722656 54.175781 " fill-opacity="1" fill-rule="nonzero"/><path fill="#ffcc00" d="M 35.304688 47.339844 C 35.910156 47.949219 36.984375 47.851562 37.714844 47.121094 L 40.558594 44.257812 C 41.289062 43.527344 41.386719 42.449219 40.777344 41.839844 C 40.171875 41.230469 39.097656 41.328125 38.371094 42.058594 L 35.523438 44.917969 C 34.796875 45.652344 34.699219 46.730469 35.304688 47.339844 Z M 35.304688 47.339844 " fill-opacity="1" fill-rule="nonzero"/><path fill="#ffcc00" d="M 28.503906 30.835938 C 28.503906 31.699219 29.332031 32.390625 30.363281 32.390625 L 34.386719 32.390625 C 35.417969 32.390625 36.246094 31.699219 36.246094 30.835938 C 36.246094 29.972656 35.417969 29.28125 34.386719 29.28125 L 30.363281 29.28125 C 29.332031 29.28125 28.503906 29.972656 28.503906 30.835938 Z M 28.503906 30.835938 " fill-opacity="1" fill-rule="nonzero"/><path fill="#ffcc00" d="M 35.304688 14.332031 C 34.699219 14.941406 34.796875 16.019531 35.523438 16.753906 L 38.371094 19.613281 C 39.097656 20.34375 40.171875 20.441406 40.777344 19.832031 C 41.386719 19.222656 41.289062 18.144531 40.558594 17.414062 L 37.714844 14.550781 C 36.984375 13.820312 35.910156 13.722656 35.304688 14.332031 Z M 35.304688 14.332031 " fill-opacity="1" fill-rule="nonzero"/><g clip-path="url(#ee4089fe13)"><path fill="#c6e0f7" d="M 22.34375 26.25 C 21.460938 26.25 20.585938 26.335938 19.71875 26.511719 C 18.851562 26.683594 18.011719 26.941406 17.195312 27.28125 C 16.375 27.621094 15.601562 28.039062 14.867188 28.53125 C 14.132812 29.023438 13.453125 29.585938 12.828125 30.214844 C 12.199219 30.84375 11.644531 31.527344 11.152344 32.265625 C 10.660156 33.003906 10.246094 33.78125 9.90625 34.605469 C 9.570312 35.425781 9.3125 36.269531 9.140625 37.144531 C 8.96875 38.015625 8.882812 38.894531 8.882812 39.78125 C 8.886719 40.285156 8.917969 40.78125 8.976562 41.28125 C 3.898438 42.195312 0.0898438 46.320312 0.0898438 51.296875 C 0.0898438 56.949219 5.003906 61.503906 11.113281 61.503906 L 50.445312 61.503906 C 56.070312 61.503906 60.601562 57.269531 60.601562 52.015625 C 60.601562 46.792969 56.128906 42.582031 50.550781 42.53125 C 50.460938 41.828125 50.3125 41.140625 50.101562 40.46875 C 49.886719 39.792969 49.617188 39.144531 49.289062 38.519531 C 48.957031 37.894531 48.574219 37.304688 48.140625 36.746094 C 47.703125 36.191406 47.222656 35.679688 46.695312 35.210938 C 46.164062 34.746094 45.601562 34.328125 44.996094 33.964844 C 44.394531 33.597656 43.765625 33.292969 43.105469 33.042969 C 42.449219 32.792969 41.773438 32.601562 41.078125 32.476562 C 40.386719 32.347656 39.691406 32.285156 38.984375 32.285156 C 37.308594 32.289062 35.707031 32.636719 34.179688 33.335938 C 33.601562 32.265625 32.894531 31.289062 32.054688 30.410156 C 31.214844 29.53125 30.273438 28.777344 29.234375 28.15625 C 28.191406 27.53125 27.085938 27.058594 25.917969 26.734375 C 24.75 26.410156 23.558594 26.25 22.34375 26.25 Z M 22.34375 26.25 " fill-opacity="1" fill-rule="nonzero"/></g></svg>