<svg xmlns="http://www.w3.org/2000/svg" xmlns:xlink="http://www.w3.org/1999/xlink" width="100" zoomAndPan="magnify" viewBox="0 0 75 74.999997" height="100" preserveAspectRatio="xMidYMid meet" version="1.0"><defs><clipPath id="5d66cafd99"><path d="M 49 33.617188 L 54 33.617188 L 54 39 L 49 39 Z M 49 33.617188 " clip-rule="nonzero"/></clipPath><clipPath id="92ec690f49"><path d="M 37 33.617188 L 41 33.617188 L 41 42 L 37 42 Z M 37 33.617188 " clip-rule="nonzero"/></clipPath><clipPath id="de9ed04ed6"><path d="M 64 34 L 69 34 L 69 42 L 64 42 Z M 64 34 " clip-rule="nonzero"/></clipPath><clipPath id="05e0982ca7"><path d="M 27 33.617188 L 31 33.617188 L 31 36 L 27 36 Z M 27 33.617188 " clip-rule="nonzero"/></clipPath><clipPath id="4acfd8c7a2"><path d="M 16 33.617188 L 20 33.617188 L 20 41 L 16 41 Z M 16 33.617188 " clip-rule="nonzero"/></clipPath><clipPath id="68b33c3396"><path d="M 0.84375 1 L 74.34375 1 L 74.34375 45 L 0.84375 45 Z M 0.84375 1 " clip-rule="nonzero"/></clipPath></defs><path fill="#3981bf" d="M 10 44.898438 C 9.472656 45.527344 9.113281 46.414062 8.777344 47.152344 C 8.152344 48.523438 7.5 50.082031 8.9375 51.085938 C 9.273438 51.324219 9.777344 51.394531 10.15625 51.191406 C 12.121094 50.144531 11.859375 46.089844 10.53125 44.761719 " fill-opacity="1" fill-rule="evenodd"/><path fill="#3981bf" d="M 23.191406 47.433594 C 22.238281 48.011719 21.902344 48.933594 21.5625 49.976562 C 21.320312 50.734375 21.082031 51.523438 20.945312 52.308594 C 20.730469 53.558594 21.71875 55.390625 23.019531 54.007812 C 23.804688 53.171875 23.953125 51.417969 23.921875 50.34375 C 23.894531 49.308594 23.507812 48.550781 22.964844 47.683594 " fill-opacity="1" fill-rule="evenodd"/><g clip-path="url(#5d66cafd99)"><path fill="#3981bf" d="M 52.199219 30.667969 C 51.339844 31.453125 51.042969 32.574219 50.707031 33.652344 C 50.523438 34.230469 50.34375 34.808594 50.191406 35.394531 C 50.066406 35.863281 49.734375 37.160156 50.027344 37.632812 C 50.738281 38.78125 52.523438 37.613281 52.921875 36.757812 C 53.34375 35.859375 53.320312 34.882812 53.085938 33.917969 C 52.820312 32.804688 52.542969 31.691406 52.265625 30.582031 " fill-opacity="1" fill-rule="evenodd"/></g><path fill="#3981bf" d="M 13.96875 61.328125 C 13.109375 62.113281 12.8125 63.234375 12.476562 64.3125 C 12.296875 64.890625 12.113281 65.46875 11.960938 66.054688 C 11.835938 66.527344 11.503906 67.820312 11.796875 68.292969 C 12.507812 69.441406 14.292969 68.277344 14.691406 67.417969 C 15.113281 66.519531 15.089844 65.542969 14.855469 64.578125 C 14.589844 63.464844 14.3125 62.351562 14.035156 61.242188 " fill-opacity="1" fill-rule="evenodd"/><g clip-path="url(#92ec690f49)"><path fill="#3981bf" d="M 38.695312 33.59375 C 38.1875 34.714844 38.039062 36.128906 37.78125 37.304688 C 37.671875 37.8125 37.554688 38.476562 37.507812 39 C 37.433594 39.851562 38.398438 41.988281 39.523438 40.859375 C 40.382812 40.003906 40.355469 38.324219 40.078125 37.25 C 39.742188 35.964844 39.085938 34.796875 38.601562 33.589844 " fill-opacity="1" fill-rule="evenodd"/></g><path fill="#3981bf" d="M 48.125 47.425781 C 47.566406 48.761719 47.230469 50.144531 46.945312 51.566406 C 46.828125 52.160156 46.402344 53.75 46.617188 54.464844 C 46.90625 55.414062 48.21875 55.277344 48.859375 54.847656 C 49.921875 54.128906 50.574219 52.476562 50.28125 51.238281 C 49.886719 49.601562 48.421875 48.617188 47.929688 47.140625 " fill-opacity="1" fill-rule="evenodd"/><g clip-path="url(#de9ed04ed6)"><path fill="#3981bf" d="M 67.054688 34.339844 C 66.484375 34.9375 66.132812 35.597656 65.820312 36.363281 C 65.375 37.460938 64.761719 38.925781 65.035156 40.144531 C 65.242188 41.058594 67.441406 41.578125 68.046875 40.972656 C 68.890625 40.125 69.117188 38.613281 69.007812 37.484375 C 68.871094 36.015625 67.277344 35.296875 67.277344 34.457031 " fill-opacity="1" fill-rule="evenodd"/></g><path fill="#3981bf" d="M 28.824219 65 C 28.253906 65.597656 27.902344 66.261719 27.589844 67.027344 C 27.144531 68.121094 26.53125 69.585938 26.808594 70.804688 C 27.015625 71.71875 29.210938 72.238281 29.816406 71.632812 C 30.660156 70.789062 30.886719 69.273438 30.777344 68.144531 C 30.640625 66.675781 29.046875 65.960938 29.046875 65.121094 " fill-opacity="1" fill-rule="evenodd"/><path fill="#3981bf" d="M 59.859375 39.175781 C 59.167969 40.183594 58.925781 41.386719 58.585938 42.546875 C 58.117188 44.171875 57.109375 47.910156 58.972656 48.300781 C 63.078125 49.160156 61.46875 43.691406 61.375 42.929688 C 61.222656 41.707031 60.910156 40.457031 60.226562 39.433594 " fill-opacity="1" fill-rule="evenodd"/><path fill="#3981bf" d="M 63.980469 55.964844 C 63.355469 57.519531 60.824219 63.511719 64.613281 62.652344 C 66.132812 62.308594 65.601562 58.402344 65.082031 57.425781 C 64.1875 55.734375 63.890625 55.574219 63.890625 55.730469 " fill-opacity="1" fill-rule="evenodd"/><g clip-path="url(#05e0982ca7)"><path fill="#3981bf" d="M 29.261719 28.867188 C 28.636719 30.421875 26.105469 36.414062 29.894531 35.554688 C 31.414062 35.210938 30.882812 31.304688 30.367188 30.328125 C 29.46875 28.636719 29.171875 28.476562 29.171875 28.628906 " fill-opacity="1" fill-rule="evenodd"/></g><path fill="#3981bf" d="M 36.855469 55.710938 C 36.195312 56.878906 36.152344 57.246094 35.714844 58.800781 C 35.519531 59.492188 35.25 60.558594 35.113281 61.269531 C 34.953125 62.070312 34.71875 63.089844 34.871094 63.917969 C 35.082031 65.0625 37.613281 65.207031 38.285156 64.464844 C 39.402344 63.238281 39.378906 61.003906 38.964844 59.523438 C 38.59375 58.195312 37.933594 57.164062 36.980469 56.210938 " fill-opacity="1" fill-rule="evenodd"/><path fill="#3981bf" d="M 52.230469 60.203125 C 51.964844 61.316406 51.578125 62.355469 51.367188 63.496094 C 51.246094 64.15625 51.109375 64.816406 51.007812 65.484375 C 50.539062 68.589844 53.058594 68.386719 54.226562 66.25 C 55.054688 64.730469 54.363281 63.148438 53.777344 61.691406 C 53.578125 61.195312 53.214844 60.113281 52.511719 60.183594 " fill-opacity="1" fill-rule="evenodd"/><g clip-path="url(#4acfd8c7a2)"><path fill="#3981bf" d="M 17.511719 33.105469 C 17.246094 34.21875 16.859375 35.257812 16.648438 36.398438 C 16.527344 37.058594 16.390625 37.71875 16.289062 38.382812 C 15.820312 41.492188 18.339844 41.289062 19.507812 39.148438 C 20.335938 37.628906 19.644531 36.050781 19.058594 34.589844 C 18.859375 34.097656 18.496094 33.015625 17.792969 33.085938 " fill-opacity="1" fill-rule="evenodd"/></g><path fill="#f5c12e" d="M 47.511719 49.71875 L 41.644531 49.71875 L 44.058594 43.683594 C 44.277344 43.140625 44.222656 42.625 43.894531 42.136719 C 43.5625 41.648438 43.101562 41.40625 42.511719 41.40625 L 32.511719 41.40625 C 32.160156 41.40625 31.84375 41.503906 31.558594 41.703125 C 31.269531 41.898438 31.066406 42.160156 30.945312 42.488281 L 25.945312 55.785156 C 25.898438 55.914062 25.863281 56.042969 25.847656 56.175781 C 25.832031 56.308594 25.835938 56.441406 25.851562 56.578125 C 25.867188 56.710938 25.902344 56.839844 25.949219 56.964844 C 25.996094 57.089844 26.058594 57.207031 26.136719 57.320312 C 26.214844 57.429688 26.304688 57.527344 26.40625 57.617188 C 26.507812 57.707031 26.617188 57.78125 26.734375 57.84375 C 26.855469 57.90625 26.980469 57.953125 27.113281 57.984375 C 27.242188 58.015625 27.375 58.03125 27.511719 58.03125 L 31.945312 58.03125 L 27.511719 72.511719 C 27.394531 72.886719 27.414062 73.261719 27.5625 73.625 C 27.714844 73.992188 27.960938 74.265625 28.308594 74.457031 C 28.582031 74.601562 28.871094 74.667969 29.175781 74.65625 C 29.6875 74.65625 30.109375 74.460938 30.445312 74.074219 L 48.777344 52.460938 C 48.988281 52.214844 49.117188 51.929688 49.160156 51.609375 C 49.207031 51.289062 49.160156 50.980469 49.023438 50.6875 C 48.886719 50.390625 48.683594 50.15625 48.410156 49.980469 C 48.136719 49.804688 47.835938 49.71875 47.511719 49.71875 Z M 47.511719 49.71875 " fill-opacity="1" fill-rule="nonzero"/><g clip-path="url(#68b33c3396)"><path fill="#d1d1d1" d="M 62.292969 22.15625 C 62.648438 20.203125 62.566406 18.269531 62.042969 16.355469 C 61.738281 15.21875 61.289062 14.144531 60.699219 13.128906 C 60.105469 12.113281 59.394531 11.191406 58.554688 10.367188 C 57.71875 9.539062 56.789062 8.835938 55.769531 8.253906 C 54.746094 7.671875 53.664062 7.234375 52.523438 6.9375 C 51.382812 6.640625 50.226562 6.5 49.046875 6.511719 C 47.871094 6.519531 46.714844 6.683594 45.582031 7 C 44.445312 7.316406 43.375 7.773438 42.359375 8.375 C 41.347656 8.972656 40.429688 9.695312 39.609375 10.535156 C 39.269531 9.75 38.867188 9.003906 38.398438 8.289062 C 37.929688 7.574219 37.402344 6.902344 36.820312 6.277344 C 36.234375 5.652344 35.605469 5.082031 34.921875 4.566406 C 34.242188 4.050781 33.519531 3.59375 32.761719 3.199219 C 32 2.808594 31.214844 2.480469 30.398438 2.222656 C 29.582031 1.960938 28.75 1.773438 27.902344 1.65625 C 27.054688 1.539062 26.203125 1.496094 25.347656 1.523438 C 24.492188 1.550781 23.644531 1.652344 22.804688 1.824219 C 21.96875 2 21.148438 2.242188 20.351562 2.554688 C 19.554688 2.867188 18.792969 3.242188 18.058594 3.6875 C 17.328125 4.128906 16.640625 4.632812 15.992188 5.191406 C 15.347656 5.753906 14.753906 6.363281 14.214844 7.027344 C 13.671875 7.6875 13.195312 8.390625 12.773438 9.136719 C 12.351562 9.878906 12 10.652344 11.710938 11.457031 C 11.425781 12.261719 11.207031 13.085938 11.0625 13.925781 C 10.917969 14.769531 10.84375 15.617188 10.84375 16.46875 C 10.835938 16.632812 10.835938 16.792969 10.84375 16.953125 C 10.140625 17.140625 9.453125 17.386719 8.789062 17.6875 C 8.125 17.984375 7.488281 18.335938 6.878906 18.738281 C 6.273438 19.144531 5.703125 19.589844 5.167969 20.085938 C 4.632812 20.582031 4.140625 21.117188 3.691406 21.691406 C 3.242188 22.265625 2.84375 22.871094 2.496094 23.511719 C 2.144531 24.148438 1.847656 24.8125 1.609375 25.5 C 1.367188 26.183594 1.179688 26.886719 1.050781 27.601562 C 0.925781 28.320312 0.855469 29.042969 0.84375 29.769531 L 0.84375 29.9375 C 0.871094 30.925781 0.996094 31.902344 1.214844 32.867188 C 1.433594 33.832031 1.742188 34.765625 2.144531 35.667969 C 2.546875 36.574219 3.03125 37.429688 3.601562 38.242188 C 4.167969 39.050781 4.808594 39.796875 5.523438 40.484375 C 6.238281 41.167969 7.015625 41.777344 7.847656 42.3125 C 8.683594 42.847656 9.558594 43.296875 10.480469 43.664062 C 11.402344 44.027344 12.351562 44.296875 13.328125 44.476562 C 14.300781 44.660156 15.285156 44.742188 16.277344 44.730469 L 64.175781 44.730469 C 64.832031 44.730469 65.484375 44.667969 66.128906 44.539062 C 66.773438 44.410156 67.398438 44.222656 68.003906 43.972656 C 68.609375 43.722656 69.1875 43.414062 69.734375 43.050781 C 70.277344 42.6875 70.785156 42.273438 71.25 41.808594 C 71.710938 41.347656 72.128906 40.84375 72.492188 40.296875 C 72.855469 39.753906 73.164062 39.179688 73.414062 38.574219 C 73.667969 37.96875 73.855469 37.34375 73.984375 36.703125 C 74.113281 36.0625 74.175781 35.410156 74.175781 34.757812 C 74.210938 33.953125 74.160156 33.152344 74.035156 32.355469 C 73.90625 31.5625 73.703125 30.785156 73.417969 30.03125 C 73.136719 29.277344 72.78125 28.558594 72.355469 27.875 C 71.929688 27.191406 71.441406 26.554688 70.886719 25.96875 C 70.332031 25.382812 69.726562 24.855469 69.070312 24.390625 C 68.410156 23.921875 67.714844 23.527344 66.976562 23.199219 C 66.238281 22.871094 65.472656 22.621094 64.6875 22.445312 C 63.898438 22.269531 63.101562 22.171875 62.292969 22.15625 Z M 62.292969 22.15625 " fill-opacity="1" fill-rule="nonzero"/></g></svg>