<svg xmlns="http://www.w3.org/2000/svg" xmlns:xlink="http://www.w3.org/1999/xlink" width="100" zoomAndPan="magnify" viewBox="0 0 75 74.999997" height="100" preserveAspectRatio="xMidYMid meet" version="1.0"><defs><clipPath id="280fcd4ac2"><path d="M 45 2.25 L 49 2.25 L 49 8 L 45 8 Z M 45 2.25 " clip-rule="nonzero"/></clipPath><clipPath id="42730d4ab8"><path d="M 18 67 L 54 67 L 54 72.75 L 18 72.75 Z M 18 67 " clip-rule="nonzero"/></clipPath></defs><path fill="#fdd020" d="M 66.097656 27.414062 C 66.097656 36.445312 58.777344 43.769531 49.742188 43.769531 C 40.710938 43.769531 33.390625 36.445312 33.390625 27.414062 C 33.390625 18.382812 40.710938 11.058594 49.742188 11.058594 C 58.777344 11.058594 66.097656 18.382812 66.097656 27.414062 Z M 66.097656 27.414062 " fill-opacity="1" fill-rule="nonzero"/><path fill="#fdd020" d="M 73.648438 28.671875 L 71.128906 28.671875 C 70.433594 28.671875 69.871094 28.109375 69.871094 27.414062 C 69.871094 26.71875 70.433594 26.15625 71.128906 26.15625 L 73.648438 26.15625 C 74.34375 26.15625 74.90625 26.71875 74.90625 27.414062 C 74.90625 28.109375 74.34375 28.671875 73.648438 28.671875 Z M 73.648438 28.671875 " fill-opacity="1" fill-rule="nonzero"/><g clip-path="url(#280fcd4ac2)"><path fill="#fdd020" d="M 47.226562 7.285156 C 46.535156 7.285156 45.96875 6.722656 45.96875 6.027344 L 45.96875 3.511719 C 45.96875 2.816406 46.535156 2.253906 47.226562 2.253906 C 47.921875 2.253906 48.484375 2.816406 48.484375 3.511719 L 48.484375 6.027344 C 48.484375 6.722656 47.921875 7.285156 47.226562 7.285156 Z M 47.226562 7.285156 " fill-opacity="1" fill-rule="nonzero"/></g><path fill="#fdd020" d="M 64.839844 13.574219 C 64.332031 13.574219 63.875 13.269531 63.679688 12.796875 C 63.484375 12.328125 63.589844 11.789062 63.953125 11.429688 L 66.46875 8.910156 C 66.785156 8.585938 67.25 8.453125 67.691406 8.570312 C 68.128906 8.683594 68.472656 9.027344 68.589844 9.46875 C 68.703125 9.90625 68.574219 10.375 68.246094 10.691406 L 65.730469 13.207031 C 65.496094 13.441406 65.175781 13.574219 64.839844 13.574219 Z M 64.839844 13.574219 " fill-opacity="1" fill-rule="nonzero"/><path fill="#a3d4f7" d="M 58.550781 58.863281 C 65.929688 58.863281 71.128906 53.011719 71.128906 45.792969 C 71.050781 38.496094 65.066406 32.644531 57.769531 32.726562 C 56.882812 32.726562 55.996094 32.8125 55.128906 32.984375 C 54.039062 27.949219 49.5625 24.367188 44.414062 24.410156 C 42.835938 24.410156 41.28125 24.746094 39.847656 25.394531 C 37.320312 18.902344 30.5625 15.09375 23.699219 16.300781 C 16.835938 17.503906 11.777344 23.382812 11.613281 30.347656 C 11.617188 31.976562 11.90625 33.589844 12.464844 35.121094 C 8.199219 35.144531 4.269531 37.457031 2.179688 41.179688 C 0.0898438 44.902344 0.160156 49.460938 2.363281 53.117188 C 4.5625 56.773438 8.558594 58.96875 12.828125 58.863281 " fill-opacity="1" fill-rule="nonzero"/><g clip-path="url(#42730d4ab8)"><path fill="#60a2d7" d="M 52.261719 72.703125 C 50.183594 72.75 48.128906 72.277344 46.28125 71.328125 C 44.765625 70.53125 43.066406 70.140625 41.355469 70.1875 C 39.640625 70.140625 37.945312 70.53125 36.429688 71.328125 C 34.582031 72.277344 32.527344 72.75 30.449219 72.703125 C 28.375 72.75 26.320312 72.277344 24.472656 71.328125 C 22.957031 70.535156 21.261719 70.140625 19.550781 70.1875 C 18.855469 70.1875 18.292969 69.625 18.292969 68.929688 C 18.292969 68.234375 18.855469 67.671875 19.550781 67.671875 C 21.625 67.625 23.679688 68.097656 25.527344 69.046875 C 27.042969 69.839844 28.738281 70.234375 30.449219 70.1875 C 32.164062 70.234375 33.859375 69.839844 35.375 69.046875 C 37.222656 68.097656 39.277344 67.625 41.355469 67.671875 C 43.429688 67.625 45.484375 68.097656 47.335938 69.046875 C 48.851562 69.839844 50.546875 70.234375 52.261719 70.1875 C 52.957031 70.1875 53.519531 70.75 53.519531 71.445312 C 53.519531 72.140625 52.957031 72.703125 52.261719 72.703125 Z M 52.261719 72.703125 " fill-opacity="1" fill-rule="nonzero"/></g><path fill="#60a2d7" d="M 52.261719 57.605469 C 50.183594 57.652344 48.128906 57.179688 46.28125 56.234375 C 44.765625 55.4375 43.066406 55.042969 41.355469 55.089844 C 39.640625 55.042969 37.945312 55.4375 36.429688 56.234375 C 34.582031 57.179688 32.527344 57.652344 30.449219 57.605469 C 28.375 57.652344 26.320312 57.179688 24.472656 56.234375 C 22.957031 55.4375 21.261719 55.042969 19.550781 55.089844 C 18.855469 55.089844 18.292969 54.527344 18.292969 53.832031 C 18.292969 53.136719 18.855469 52.574219 19.550781 52.574219 C 21.625 52.53125 23.679688 53 25.527344 53.949219 C 27.042969 54.746094 28.738281 55.140625 30.449219 55.089844 C 32.164062 55.140625 33.859375 54.746094 35.375 53.949219 C 37.222656 53 39.277344 52.53125 41.355469 52.574219 C 43.429688 52.53125 45.484375 53 47.335938 53.949219 C 48.851562 54.746094 50.546875 55.140625 52.261719 55.089844 C 52.957031 55.089844 53.519531 55.652344 53.519531 56.347656 C 53.519531 57.042969 52.957031 57.605469 52.261719 57.605469 Z M 52.261719 57.605469 " fill-opacity="1" fill-rule="nonzero"/><path fill="#60a2d7" d="M 52.261719 50.058594 C 50.183594 50.105469 48.128906 49.632812 46.28125 48.683594 C 44.765625 47.886719 43.066406 47.496094 41.355469 47.542969 C 39.640625 47.496094 37.945312 47.886719 36.429688 48.683594 C 34.582031 49.632812 32.527344 50.105469 30.449219 50.058594 C 28.375 50.105469 26.320312 49.632812 24.472656 48.683594 C 22.957031 47.890625 21.261719 47.496094 19.550781 47.542969 C 18.855469 47.542969 18.292969 46.980469 18.292969 46.285156 C 18.292969 45.589844 18.855469 45.027344 19.550781 45.027344 C 21.625 44.980469 23.679688 45.453125 25.527344 46.398438 C 27.042969 47.195312 28.738281 47.589844 30.449219 47.542969 C 32.164062 47.589844 33.859375 47.195312 35.375 46.398438 C 37.222656 45.453125 39.277344 44.980469 41.355469 45.027344 C 43.429688 44.980469 45.484375 45.453125 47.335938 46.398438 C 48.851562 47.195312 50.546875 47.589844 52.261719 47.542969 C 52.957031 47.542969 53.519531 48.105469 53.519531 48.800781 C 53.519531 49.496094 52.957031 50.058594 52.261719 50.058594 Z M 52.261719 50.058594 " fill-opacity="1" fill-rule="nonzero"/><path fill="#60a2d7" d="M 52.261719 65.15625 C 50.183594 65.199219 48.128906 64.726562 46.28125 63.78125 C 44.765625 62.984375 43.066406 62.589844 41.355469 62.640625 C 39.640625 62.589844 37.945312 62.984375 36.429688 63.78125 C 34.582031 64.726562 32.527344 65.199219 30.449219 65.15625 C 28.375 65.199219 26.320312 64.726562 24.472656 63.78125 C 22.957031 62.984375 21.261719 62.589844 19.550781 62.640625 C 18.855469 62.640625 18.292969 62.074219 18.292969 61.382812 C 18.292969 60.6875 18.855469 60.121094 19.550781 60.121094 C 21.625 60.078125 23.679688 60.550781 25.527344 61.496094 C 27.042969 62.292969 28.738281 62.6875 30.449219 62.640625 C 32.164062 62.6875 33.859375 62.292969 35.375 61.496094 C 37.222656 60.550781 39.277344 60.078125 41.355469 60.121094 C 43.429688 60.078125 45.484375 60.550781 47.335938 61.496094 C 48.851562 62.292969 50.546875 62.6875 52.261719 62.640625 C 52.957031 62.640625 53.519531 63.203125 53.519531 63.898438 C 53.519531 64.59375 52.957031 65.15625 52.261719 65.15625 Z M 52.261719 65.15625 " fill-opacity="1" fill-rule="nonzero"/></svg>