<svg xmlns="http://www.w3.org/2000/svg" xmlns:xlink="http://www.w3.org/1999/xlink" width="100" zoomAndPan="magnify" viewBox="0 0 75 74.999997" height="100" preserveAspectRatio="xMidYMid meet" version="1.0"><path fill="#86a3bf" d="M 36.824219 9.035156 C 35.941406 9.035156 35.066406 9.121094 34.203125 9.296875 C 33.335938 9.46875 32.496094 9.726562 31.679688 10.066406 C 30.867188 10.40625 30.09375 10.820312 29.359375 11.3125 C 28.625 11.808594 27.945312 12.367188 27.324219 12.996094 C 26.699219 13.625 26.140625 14.304688 25.652344 15.042969 C 25.160156 15.78125 24.746094 16.5625 24.410156 17.382812 C 24.074219 18.203125 23.816406 19.046875 23.644531 19.917969 C 23.472656 20.789062 23.386719 21.667969 23.386719 22.554688 C 23.390625 23.054688 23.421875 23.554688 23.480469 24.050781 C 18.414062 24.96875 14.609375 29.085938 14.609375 34.058594 C 14.609375 39.707031 19.515625 44.253906 25.613281 44.253906 L 64.867188 44.253906 C 70.480469 44.253906 75 40.027344 75 34.777344 C 75 29.558594 70.535156 25.351562 64.972656 25.300781 C 64.882812 24.601562 64.734375 23.914062 64.519531 23.238281 C 64.308594 22.566406 64.039062 21.914062 63.710938 21.292969 C 63.378906 20.667969 63 20.078125 62.5625 19.523438 C 62.128906 18.96875 61.648438 18.457031 61.121094 17.988281 C 60.59375 17.523438 60.03125 17.105469 59.429688 16.742188 C 58.828125 16.378906 58.199219 16.070312 57.539062 15.820312 C 56.882812 15.570312 56.210938 15.382812 55.519531 15.253906 C 54.828125 15.128906 54.132812 15.066406 53.429688 15.066406 C 51.757812 15.066406 50.15625 15.417969 48.632812 16.113281 C 48.058594 15.042969 47.351562 14.070312 46.511719 13.191406 C 45.675781 12.3125 44.734375 11.5625 43.695312 10.941406 C 42.65625 10.316406 41.554688 9.84375 40.386719 9.519531 C 39.21875 9.199219 38.03125 9.035156 36.824219 9.035156 Z M 36.824219 9.035156 " fill-opacity="1" fill-rule="nonzero"/><path fill="#c6e0f7" d="M 22.21875 14.125 C 21.335938 14.125 20.460938 14.210938 19.597656 14.382812 C 18.730469 14.554688 17.890625 14.8125 17.074219 15.152344 C 16.261719 15.492188 15.488281 15.910156 14.753906 16.402344 C 14.019531 16.894531 13.339844 17.457031 12.71875 18.082031 C 12.09375 18.710938 11.535156 19.394531 11.046875 20.132812 C 10.554688 20.871094 10.140625 21.648438 9.804688 22.46875 C 9.46875 23.289062 9.210938 24.132812 9.039062 25.003906 C 8.867188 25.875 8.78125 26.753906 8.78125 27.640625 C 8.785156 28.144531 8.816406 28.640625 8.875 29.140625 C 3.808594 30.054688 0.00390625 34.171875 0.00390625 39.144531 C 0.00390625 44.792969 4.910156 49.339844 11.007812 49.339844 L 50.261719 49.339844 C 55.875 49.339844 60.394531 45.113281 60.394531 39.863281 C 60.394531 34.644531 55.929688 30.441406 50.367188 30.386719 C 50.277344 29.6875 50.128906 29 49.914062 28.328125 C 49.703125 27.652344 49.433594 27.003906 49.105469 26.378906 C 48.773438 25.753906 48.394531 25.164062 47.957031 24.609375 C 47.523438 24.054688 47.042969 23.542969 46.515625 23.078125 C 45.988281 22.609375 45.425781 22.195312 44.824219 21.828125 C 44.222656 21.464844 43.59375 21.15625 42.933594 20.910156 C 42.277344 20.660156 41.605469 20.46875 40.914062 20.34375 C 40.222656 20.214844 39.527344 20.152344 38.824219 20.152344 C 37.152344 20.15625 35.550781 20.503906 34.027344 21.203125 C 33.453125 20.132812 32.746094 19.15625 31.90625 18.277344 C 31.070312 17.402344 30.128906 16.648438 29.089844 16.027344 C 28.050781 15.402344 26.949219 14.929688 25.78125 14.609375 C 24.613281 14.285156 23.425781 14.125 22.21875 14.125 Z M 22.21875 14.125 " fill-opacity="1" fill-rule="nonzero"/><path fill="#3981bf" d="M 15.734375 42.925781 C 14.710938 44.085938 11.949219 46.40625 11.117188 49.566406 C 11.023438 49.917969 11 50.277344 11.046875 50.644531 C 11.09375 51.007812 11.207031 51.347656 11.390625 51.664062 C 11.574219 51.984375 11.808594 52.253906 12.097656 52.476562 C 12.386719 52.703125 12.710938 52.859375 13.0625 52.957031 C 13.414062 53.050781 13.773438 53.074219 14.132812 53.027344 C 14.496094 52.980469 14.832031 52.863281 15.148438 52.679688 C 15.464844 52.496094 15.734375 52.257812 15.957031 51.96875 C 16.179688 51.675781 16.335938 51.351562 16.433594 50.996094 C 16.4375 50.976562 16.445312 50.953125 16.449219 50.929688 C 17.304688 47.609375 16.039062 44.433594 15.734375 42.925781 Z M 15.734375 42.925781 " fill-opacity="1" fill-rule="nonzero"/><path fill="#3981bf" d="M 28.3125 42.925781 C 27.289062 44.085938 24.527344 46.40625 23.695312 49.566406 C 23.601562 49.917969 23.578125 50.277344 23.625 50.644531 C 23.671875 51.007812 23.789062 51.347656 23.96875 51.664062 C 24.152344 51.984375 24.386719 52.253906 24.675781 52.476562 C 24.96875 52.703125 25.289062 52.859375 25.640625 52.957031 C 25.992188 53.050781 26.351562 53.074219 26.710938 53.027344 C 27.074219 52.980469 27.414062 52.863281 27.726562 52.679688 C 28.042969 52.496094 28.3125 52.257812 28.535156 51.96875 C 28.757812 51.675781 28.917969 51.351562 29.011719 50.996094 C 29.015625 50.976562 29.023438 50.953125 29.027344 50.929688 C 29.882812 47.609375 28.617188 44.433594 28.3125 42.925781 Z M 28.3125 42.925781 " fill-opacity="1" fill-rule="nonzero"/><path fill="#3981bf" d="M 40.910156 43.265625 C 39.890625 44.421875 37.128906 46.742188 36.292969 49.902344 C 36.199219 50.257812 36.175781 50.617188 36.222656 50.980469 C 36.273438 51.34375 36.386719 51.6875 36.570312 52.003906 C 36.75 52.320312 36.988281 52.59375 37.277344 52.816406 C 37.566406 53.039062 37.886719 53.199219 38.238281 53.292969 C 38.59375 53.390625 38.949219 53.414062 39.3125 53.363281 C 39.671875 53.316406 40.011719 53.199219 40.328125 53.015625 C 40.644531 52.832031 40.914062 52.597656 41.136719 52.304688 C 41.355469 52.015625 41.515625 51.691406 41.609375 51.335938 C 41.617188 51.3125 41.621094 51.289062 41.628906 51.265625 C 42.480469 47.949219 41.214844 44.769531 40.910156 43.265625 Z M 40.910156 43.265625 " fill-opacity="1" fill-rule="nonzero"/><path fill="#3981bf" d="M 22.03125 54.453125 C 21.011719 55.613281 18.25 57.933594 17.414062 61.09375 C 17.320312 61.445312 17.296875 61.804688 17.347656 62.167969 C 17.394531 62.535156 17.507812 62.875 17.691406 63.191406 C 17.875 63.511719 18.109375 63.78125 18.398438 64.003906 C 18.6875 64.230469 19.007812 64.386719 19.363281 64.484375 C 19.714844 64.578125 20.070312 64.601562 20.433594 64.554688 C 20.792969 64.503906 21.132812 64.390625 21.449219 64.207031 C 21.765625 64.023438 22.035156 63.785156 22.257812 63.492188 C 22.480469 63.203125 22.636719 62.878906 22.730469 62.523438 C 22.738281 62.503906 22.742188 62.480469 22.75 62.457031 C 23.601562 59.136719 22.339844 55.960938 22.03125 54.453125 Z M 22.03125 54.453125 " fill-opacity="1" fill-rule="nonzero"/><path fill="#3981bf" d="M 34.609375 54.453125 C 33.589844 55.613281 30.828125 57.933594 29.996094 61.09375 C 29.898438 61.445312 29.875 61.804688 29.925781 62.167969 C 29.972656 62.535156 30.085938 62.875 30.269531 63.191406 C 30.453125 63.511719 30.6875 63.78125 30.976562 64.003906 C 31.265625 64.230469 31.585938 64.386719 31.941406 64.484375 C 32.292969 64.578125 32.648438 64.601562 33.011719 64.554688 C 33.375 64.503906 33.710938 64.390625 34.027344 64.207031 C 34.34375 64.023438 34.613281 63.785156 34.835938 63.492188 C 35.058594 63.203125 35.214844 62.878906 35.308594 62.523438 C 35.316406 62.503906 35.320312 62.480469 35.328125 62.457031 C 36.183594 59.136719 34.917969 55.960938 34.609375 54.453125 Z M 34.609375 54.453125 " fill-opacity="1" fill-rule="nonzero"/></svg>