<svg xmlns="http://www.w3.org/2000/svg" xmlns:xlink="http://www.w3.org/1999/xlink" width="100" zoomAndPan="magnify" viewBox="0 0 75 74.999997" height="100" preserveAspectRatio="xMidYMid meet" version="1.0"><defs><clipPath id="efe803d23a"><path d="M 50 3.035156 L 54 3.035156 L 54 11 L 50 11 Z M 50 3.035156 " clip-rule="nonzero"/></clipPath></defs><path fill="#ffcc00" d="M 63.519531 26.183594 C 63.519531 26.957031 63.445312 27.722656 63.292969 28.480469 C 63.140625 29.242188 62.917969 29.976562 62.621094 30.691406 C 62.324219 31.40625 61.960938 32.085938 61.53125 32.730469 C 61.097656 33.375 60.609375 33.96875 60.0625 34.515625 C 59.511719 35.0625 58.917969 35.554688 58.269531 35.984375 C 57.625 36.414062 56.945312 36.777344 56.230469 37.070312 C 55.511719 37.367188 54.773438 37.59375 54.015625 37.742188 C 53.253906 37.894531 52.484375 37.96875 51.710938 37.96875 C 50.933594 37.96875 50.167969 37.894531 49.40625 37.742188 C 48.644531 37.59375 47.90625 37.367188 47.191406 37.070312 C 46.476562 36.777344 45.792969 36.414062 45.148438 35.984375 C 44.503906 35.554688 43.910156 35.0625 43.359375 34.515625 C 42.8125 33.96875 42.324219 33.375 41.890625 32.730469 C 41.460938 32.085938 41.097656 31.40625 40.800781 30.691406 C 40.503906 29.976562 40.28125 29.242188 40.128906 28.480469 C 39.976562 27.722656 39.902344 26.957031 39.902344 26.183594 C 39.902344 25.410156 39.976562 24.640625 40.128906 23.882812 C 40.28125 23.125 40.503906 22.386719 40.800781 21.671875 C 41.097656 20.957031 41.460938 20.277344 41.890625 19.632812 C 42.324219 18.988281 42.8125 18.394531 43.359375 17.847656 C 43.910156 17.300781 44.503906 16.8125 45.148438 16.382812 C 45.792969 15.953125 46.476562 15.589844 47.191406 15.292969 C 47.90625 14.996094 48.644531 14.773438 49.40625 14.621094 C 50.167969 14.46875 50.933594 14.394531 51.710938 14.394531 C 52.484375 14.394531 53.253906 14.46875 54.015625 14.621094 C 54.773438 14.773438 55.511719 14.996094 56.230469 15.292969 C 56.945312 15.589844 57.625 15.953125 58.269531 16.382812 C 58.917969 16.8125 59.511719 17.300781 60.0625 17.847656 C 60.609375 18.394531 61.097656 18.992188 61.53125 19.632812 C 61.960938 20.277344 62.324219 20.957031 62.621094 21.671875 C 62.917969 22.386719 63.140625 23.125 63.292969 23.882812 C 63.445312 24.640625 63.519531 25.410156 63.519531 26.183594 Z M 63.519531 26.183594 " fill-opacity="1" fill-rule="nonzero"/><g clip-path="url(#efe803d23a)"><path fill="#ffcc00" d="M 51.710938 3.027344 C 50.855469 3.027344 50.164062 3.855469 50.164062 4.882812 L 50.164062 8.894531 C 50.164062 9.921875 50.855469 10.746094 51.710938 10.746094 C 52.566406 10.746094 53.257812 9.921875 53.257812 8.894531 L 53.257812 4.882812 C 53.257812 3.855469 52.566406 3.027344 51.710938 3.027344 Z M 51.710938 3.027344 " fill-opacity="1" fill-rule="nonzero"/></g><path fill="#ffcc00" d="M 68.113281 9.808594 C 67.507812 9.207031 66.433594 9.304688 65.707031 10.027344 L 62.863281 12.867188 C 62.136719 13.59375 62.039062 14.664062 62.644531 15.269531 C 63.25 15.871094 64.324219 15.773438 65.050781 15.050781 L 67.894531 12.210938 C 68.621094 11.484375 68.71875 10.414062 68.113281 9.808594 Z M 68.113281 9.808594 " fill-opacity="1" fill-rule="nonzero"/><path fill="#ffcc00" d="M 74.90625 26.183594 C 74.90625 25.328125 74.078125 24.640625 73.050781 24.640625 L 69.03125 24.640625 C 68.003906 24.640625 67.175781 25.328125 67.175781 26.183594 C 67.175781 27.039062 68.003906 27.726562 69.03125 27.726562 L 73.050781 27.726562 C 74.078125 27.726562 74.90625 27.039062 74.90625 26.183594 Z M 74.90625 26.183594 " fill-opacity="1" fill-rule="nonzero"/><path fill="#ffcc00" d="M 68.113281 42.554688 C 68.71875 41.949219 68.621094 40.878906 67.894531 40.152344 L 65.050781 37.316406 C 64.324219 36.589844 63.25 36.492188 62.644531 37.097656 C 62.039062 37.703125 62.136719 38.773438 62.863281 39.5 L 65.707031 42.335938 C 66.433594 43.0625 67.507812 43.160156 68.113281 42.554688 Z M 68.113281 42.554688 " fill-opacity="1" fill-rule="nonzero"/><path fill="#ffcc00" d="M 51.710938 49.335938 C 52.566406 49.335938 53.257812 48.511719 53.257812 47.484375 L 53.257812 43.46875 C 53.257812 42.445312 52.566406 41.617188 51.710938 41.617188 C 50.855469 41.617188 50.164062 42.445312 50.164062 43.46875 L 50.164062 47.484375 C 50.164062 48.511719 50.855469 49.335938 51.710938 49.335938 Z M 51.710938 49.335938 " fill-opacity="1" fill-rule="nonzero"/><path fill="#ffcc00" d="M 35.308594 42.554688 C 35.914062 43.160156 36.988281 43.0625 37.714844 42.335938 L 40.558594 39.5 C 41.285156 38.773438 41.382812 37.703125 40.777344 37.097656 C 40.167969 36.492188 39.097656 36.589844 38.371094 37.316406 L 35.527344 40.152344 C 34.800781 40.878906 34.703125 41.949219 35.308594 42.554688 Z M 35.308594 42.554688 " fill-opacity="1" fill-rule="nonzero"/><path fill="#ffcc00" d="M 28.515625 26.183594 C 28.515625 27.039062 29.339844 27.726562 30.371094 27.726562 L 34.390625 27.726562 C 35.417969 27.726562 36.246094 27.039062 36.246094 26.183594 C 36.246094 25.328125 35.417969 24.640625 34.390625 24.640625 L 30.371094 24.640625 C 29.339844 24.640625 28.515625 25.328125 28.515625 26.183594 Z M 28.515625 26.183594 " fill-opacity="1" fill-rule="nonzero"/><path fill="#ffcc00" d="M 35.308594 9.808594 C 34.703125 10.414062 34.800781 11.484375 35.527344 12.210938 L 38.371094 15.050781 C 39.097656 15.773438 40.167969 15.871094 40.777344 15.269531 C 41.382812 14.664062 41.285156 13.59375 40.558594 12.867188 L 37.714844 10.027344 C 36.988281 9.304688 35.914062 9.207031 35.308594 9.808594 Z M 35.308594 9.808594 " fill-opacity="1" fill-rule="nonzero"/><path fill="#c6e0f7" d="M 22.359375 21.632812 C 21.476562 21.632812 20.601562 21.71875 19.734375 21.890625 C 18.871094 22.0625 18.027344 22.316406 17.214844 22.65625 C 16.398438 22.992188 15.621094 23.40625 14.886719 23.894531 C 14.152344 24.386719 13.472656 24.941406 12.851562 25.566406 C 12.226562 26.1875 11.667969 26.867188 11.175781 27.597656 C 10.6875 28.332031 10.273438 29.105469 9.933594 29.921875 C 9.597656 30.734375 9.339844 31.574219 9.167969 32.4375 C 8.996094 33.300781 8.910156 34.175781 8.910156 35.058594 C 8.914062 35.554688 8.945312 36.050781 9.003906 36.542969 C 3.929688 37.453125 0.125 41.542969 0.125 46.476562 C 0.125 52.085938 5.035156 56.601562 11.136719 56.601562 L 50.433594 56.601562 C 56.054688 56.601562 60.578125 52.40625 60.578125 47.191406 C 60.578125 42.011719 56.109375 37.835938 50.539062 37.785156 C 50.449219 37.085938 50.300781 36.40625 50.085938 35.734375 C 49.875 35.066406 49.605469 34.421875 49.277344 33.800781 C 48.945312 33.183594 48.5625 32.597656 48.128906 32.046875 C 47.695312 31.496094 47.210938 30.988281 46.683594 30.523438 C 46.15625 30.058594 45.59375 29.648438 44.988281 29.285156 C 44.386719 28.921875 43.757812 28.617188 43.101562 28.371094 C 42.441406 28.121094 41.769531 27.933594 41.078125 27.808594 C 40.386719 27.683594 39.6875 27.621094 38.984375 27.621094 C 37.308594 27.621094 35.710938 27.96875 34.183594 28.660156 C 33.605469 27.597656 32.898438 26.632812 32.058594 25.757812 C 31.222656 24.886719 30.28125 24.140625 29.242188 23.523438 C 28.199219 22.90625 27.097656 22.433594 25.929688 22.113281 C 24.761719 21.792969 23.570312 21.632812 22.359375 21.632812 Z M 22.359375 21.632812 " fill-opacity="1" fill-rule="nonzero"/><path fill="#3981bf" d="M 15.867188 50.234375 C 14.847656 51.382812 12.082031 53.6875 11.246094 56.824219 C 11.152344 57.175781 11.128906 57.535156 11.175781 57.894531 C 11.226562 58.257812 11.339844 58.59375 11.523438 58.910156 C 11.707031 59.226562 11.941406 59.496094 12.230469 59.71875 C 12.519531 59.941406 12.84375 60.097656 13.195312 60.191406 C 13.546875 60.285156 13.90625 60.308594 14.269531 60.261719 C 14.628906 60.214844 14.96875 60.101562 15.285156 59.917969 C 15.601562 59.734375 15.871094 59.5 16.09375 59.210938 C 16.316406 58.921875 16.472656 58.601562 16.570312 58.246094 C 16.574219 58.226562 16.582031 58.203125 16.585938 58.179688 C 17.441406 54.882812 16.175781 51.730469 15.867188 50.234375 Z M 15.867188 50.234375 " fill-opacity="1" fill-rule="nonzero"/><path fill="#3981bf" d="M 28.460938 50.234375 C 27.4375 51.382812 24.675781 53.6875 23.839844 56.824219 C 23.746094 57.175781 23.722656 57.535156 23.769531 57.894531 C 23.816406 58.257812 23.933594 58.59375 24.113281 58.910156 C 24.296875 59.226562 24.535156 59.496094 24.824219 59.71875 C 25.113281 59.941406 25.433594 60.097656 25.789062 60.191406 C 26.140625 60.285156 26.496094 60.308594 26.859375 60.261719 C 27.222656 60.214844 27.5625 60.101562 27.878906 59.917969 C 28.195312 59.734375 28.464844 59.5 28.683594 59.210938 C 28.90625 58.921875 29.066406 58.601562 29.160156 58.246094 C 29.167969 58.226562 29.171875 58.203125 29.179688 58.179688 C 30.035156 54.882812 28.765625 51.730469 28.460938 50.234375 Z M 28.460938 50.234375 " fill-opacity="1" fill-rule="nonzero"/><path fill="#3981bf" d="M 41.074219 50.570312 C 40.050781 51.71875 37.285156 54.023438 36.453125 57.160156 C 36.359375 57.511719 36.335938 57.871094 36.382812 58.230469 C 36.429688 58.59375 36.542969 58.929688 36.726562 59.246094 C 36.910156 59.5625 37.144531 59.832031 37.4375 60.054688 C 37.726562 60.273438 38.046875 60.433594 38.398438 60.527344 C 38.753906 60.621094 39.109375 60.644531 39.472656 60.597656 C 39.835938 60.550781 40.171875 60.433594 40.488281 60.253906 C 40.804688 60.070312 41.074219 59.835938 41.296875 59.546875 C 41.519531 59.257812 41.679688 58.9375 41.773438 58.582031 C 41.78125 58.5625 41.785156 58.539062 41.789062 58.515625 C 42.644531 55.21875 41.378906 52.0625 41.074219 50.570312 Z M 41.074219 50.570312 " fill-opacity="1" fill-rule="nonzero"/><path fill="#3981bf" d="M 22.175781 61.679688 C 21.152344 62.828125 18.386719 65.132812 17.554688 68.269531 C 17.460938 68.621094 17.4375 68.980469 17.484375 69.339844 C 17.53125 69.703125 17.648438 70.042969 17.828125 70.355469 C 18.011719 70.671875 18.246094 70.941406 18.539062 71.164062 C 18.828125 71.386719 19.148438 71.542969 19.5 71.636719 C 19.855469 71.730469 20.210938 71.753906 20.574219 71.707031 C 20.9375 71.660156 21.277344 71.546875 21.59375 71.363281 C 21.90625 71.179688 22.175781 70.945312 22.398438 70.65625 C 22.621094 70.367188 22.78125 70.046875 22.875 69.695312 C 22.882812 69.671875 22.886719 69.648438 22.894531 69.625 C 23.75 66.332031 22.480469 63.175781 22.175781 61.679688 Z M 22.175781 61.679688 " fill-opacity="1" fill-rule="nonzero"/><path fill="#3981bf" d="M 34.765625 61.679688 C 33.746094 62.828125 30.980469 65.132812 30.144531 68.269531 C 30.050781 68.621094 30.027344 68.980469 30.074219 69.339844 C 30.125 69.703125 30.238281 70.042969 30.421875 70.355469 C 30.605469 70.671875 30.839844 70.941406 31.128906 71.164062 C 31.417969 71.386719 31.742188 71.542969 32.09375 71.636719 C 32.445312 71.730469 32.804688 71.753906 33.167969 71.707031 C 33.527344 71.660156 33.867188 71.546875 34.183594 71.363281 C 34.5 71.179688 34.769531 70.945312 34.992188 70.65625 C 35.214844 70.367188 35.371094 70.046875 35.46875 69.695312 C 35.472656 69.671875 35.480469 69.648438 35.484375 69.625 C 36.339844 66.332031 35.074219 63.175781 34.765625 61.679688 Z M 34.765625 61.679688 " fill-opacity="1" fill-rule="nonzero"/></svg>