<svg xmlns="http://www.w3.org/2000/svg" xmlns:xlink="http://www.w3.org/1999/xlink" width="100" zoomAndPan="magnify" viewBox="0 0 75 74.999997" height="100" preserveAspectRatio="xMidYMid meet" version="1.0"><defs><clipPath id="4eca82feba"><path d="M 3 5 L 71.964844 5 L 71.964844 41 L 3 41 Z M 3 5 " clip-rule="nonzero"/></clipPath><clipPath id="495d930cbf"><path d="M 3 25 L 71.964844 25 L 71.964844 41 L 3 41 Z M 3 25 " clip-rule="nonzero"/></clipPath><clipPath id="aa71bfff0a"><path d="M 64 23 L 71.964844 23 L 71.964844 30 L 64 30 Z M 64 23 " clip-rule="nonzero"/></clipPath><clipPath id="0d88fb4ba8"><path d="M 5.699219 43.144531 L 69.449219 43.144531 L 69.449219 44 L 5.699219 44 Z M 5.699219 43.144531 " clip-rule="nonzero"/></clipPath><clipPath id="4266cc6634"><path d="M 26 43.144531 L 35 43.144531 L 35 53 L 26 53 Z M 26 43.144531 " clip-rule="nonzero"/></clipPath><clipPath id="d456d6f003"><path d="M 25 43.144531 L 35 43.144531 L 35 54 L 25 54 Z M 25 43.144531 " clip-rule="nonzero"/></clipPath><clipPath id="9f74ce2959"><path d="M 28 59 L 38 59 L 38 68.644531 L 28 68.644531 Z M 28 59 " clip-rule="nonzero"/></clipPath><clipPath id="6c6fc00288"><path d="M 54 43.144531 L 63 43.144531 L 63 53 L 54 53 Z M 54 43.144531 " clip-rule="nonzero"/></clipPath><clipPath id="a2ce74f8b6"><path d="M 53 43.144531 L 63 43.144531 L 63 54 L 53 54 Z M 53 43.144531 " clip-rule="nonzero"/></clipPath></defs><g clip-path="url(#4eca82feba)"><path fill="#c6e0f7" d="M 5.433594 33.140625 C 8.230469 35.1875 11.691406 34.113281 14.601562 32.871094 C 16.976562 38.394531 23.683594 38.113281 28.558594 36.105469 C 32.328125 40.738281 38.714844 41.585938 43.570312 38.097656 C 46.765625 39.808594 50.632812 39.058594 53.035156 36.402344 C 55.296875 38 58.121094 37.816406 60.421875 36.234375 C 61.269531 35.65625 61.382812 35.738281 62.429688 35.910156 C 63.261719 36.050781 64.109375 36.0625 64.957031 35.964844 C 66.46875 35.796875 67.964844 35.257812 69.167969 34.328125 C 70.382812 33.394531 71.214844 32.09375 71.609375 30.683594 C 72.035156 29.171875 71.964844 27.53125 71.3125 26.050781 C 69.914062 22.828125 66.609375 22.195312 63.445312 22.40625 C 62.300781 18.40625 59.71875 14.691406 55.746094 13.097656 C 52.328125 11.726562 48.246094 12.066406 45.28125 14.242188 C 44.195312 8.378906 38.515625 4.210938 32.457031 5.679688 C 30.859375 6.078125 29.363281 6.8125 28.105469 7.855469 C 27.316406 8.507812 26.734375 9.480469 25.832031 9.917969 C 25.027344 10.316406 24.179688 10.160156 23.316406 10.386719 C 20.730469 11.050781 18.894531 13.152344 18.375 15.683594 C 15.335938 14.949219 12.160156 16.078125 10.476562 18.847656 C 10.140625 19.410156 9.941406 20.554688 9.53125 20.992188 C 9.164062 21.402344 8.21875 21.5 7.679688 21.785156 C 6.339844 22.519531 5.195312 23.632812 4.433594 24.949219 C 4.347656 25.101562 4.261719 25.273438 4.179688 25.429688 C 2.964844 27.96875 3.003906 31.359375 5.433594 33.140625 Z M 5.433594 33.140625 " fill-opacity="1" fill-rule="nonzero"/></g><g clip-path="url(#495d930cbf)"><path fill="#c6e0f7" d="M 5.433594 33.140625 C 8.230469 35.1875 11.691406 34.113281 14.601562 32.871094 C 16.976562 38.394531 23.683594 38.113281 28.558594 36.105469 C 32.328125 40.738281 38.714844 41.585938 43.570312 38.097656 C 46.765625 39.808594 50.632812 39.058594 53.035156 36.402344 C 55.296875 38 58.121094 37.816406 60.421875 36.234375 C 61.269531 35.65625 61.382812 35.738281 62.429688 35.910156 C 63.261719 36.050781 64.109375 36.0625 64.957031 35.964844 C 66.46875 35.796875 67.964844 35.257812 69.167969 34.328125 C 70.382812 33.394531 71.214844 32.09375 71.609375 30.683594 C 67.882812 31.953125 63.8125 31.417969 60.464844 29.171875 C 60.226562 29 59.902344 29.101562 59.703125 29.269531 C 57.910156 30.753906 55.226562 30.371094 53.910156 28.480469 C 53.726562 28.210938 53.332031 28.042969 53.035156 28.253906 C 50.859375 29.777344 48.0625 29.695312 46.070312 27.898438 C 45.847656 27.6875 45.578125 27.675781 45.296875 27.800781 C 41.835938 29.355469 38.050781 29.171875 34.746094 27.347656 C 34.503906 27.222656 34.164062 27.234375 33.980469 27.449219 C 30.265625 31.585938 24.136719 31.460938 20.5625 27.195312 C 20.292969 26.867188 19.773438 27.011719 19.574219 27.320312 C 18.414062 29.058594 16.3125 28.734375 15.492188 26.898438 C 15.351562 26.585938 14.882812 26.5 14.628906 26.671875 C 11.113281 28.917969 6.863281 28.324219 4.207031 25.46875 C 2.964844 27.96875 3.003906 31.359375 5.433594 33.140625 Z M 5.433594 33.140625 " fill-opacity="1" fill-rule="nonzero"/></g><g clip-path="url(#aa71bfff0a)"><path fill="#c6e0f7" d="M 71.074219 29.214844 C 70.875 27.503906 70.339844 26.304688 69.023438 25.171875 C 67.753906 24.070312 66.339844 23.675781 64.6875 23.5625 C 64.039062 23.519531 64.039062 24.539062 64.6875 24.582031 C 66.074219 24.664062 67.230469 24.976562 68.304688 25.894531 C 69.390625 26.828125 69.886719 27.785156 70.054688 29.214844 C 70.140625 29.847656 71.15625 29.863281 71.074219 29.214844 Z M 71.074219 29.214844 " fill-opacity="1" fill-rule="nonzero"/></g><path fill="#c6e0f7" d="M 58.375 16.316406 C 57.554688 15.582031 56.511719 15.058594 55.492188 14.652344 C 53.246094 13.746094 50.804688 13.550781 48.417969 13.988281 C 47.765625 14.101562 48.050781 15.089844 48.683594 14.960938 C 50.691406 14.59375 52.765625 14.75 54.703125 15.425781 C 55.605469 15.753906 56.511719 16.191406 57.300781 16.753906 C 58.304688 17.476562 58.925781 18.648438 59.378906 19.765625 C 59.617188 20.355469 60.605469 20.101562 60.351562 19.496094 C 59.902344 18.367188 59.308594 17.152344 58.375 16.316406 Z M 58.375 16.316406 " fill-opacity="1" fill-rule="nonzero"/><path fill="#c6e0f7" d="M 29.53125 8.367188 C 28.996094 8.734375 29.503906 9.609375 30.039062 9.242188 C 33.515625 6.867188 39.164062 7.914062 40.886719 11.996094 C 41.144531 12.589844 42.117188 12.335938 41.863281 11.726562 C 39.914062 7.078125 33.613281 5.570312 29.53125 8.367188 Z M 29.53125 8.367188 " fill-opacity="1" fill-rule="nonzero"/><path fill="#c6e0f7" d="M 24.164062 11.585938 C 22.371094 11.925781 21.015625 13.195312 20.097656 14.722656 C 19.757812 15.285156 20.632812 15.796875 20.972656 15.230469 C 21.761719 13.929688 22.894531 12.855469 24.433594 12.574219 C 25.082031 12.449219 24.8125 11.457031 24.164062 11.585938 Z M 24.164062 11.585938 " fill-opacity="1" fill-rule="nonzero"/><g clip-path="url(#0d88fb4ba8)"><path fill="#ffffff" d="M 42.515625 43.011719 C 38.117188 43.011719 33.976562 41.75 30.832031 39.449219 C 28.058594 41.390625 24.460938 42.457031 20.667969 42.457031 C 12.4375 42.457031 5.742188 37.414062 5.742188 31.21875 C 5.742188 26.625 9.523438 22.449219 15.183594 20.765625 C 15.003906 19.871094 14.917969 18.957031 14.917969 18.050781 C 14.914062 9.664062 22.402344 2.84375 31.601562 2.84375 C 39.628906 2.84375 46.472656 8.011719 47.980469 15.160156 C 48.160156 15.152344 48.34375 15.140625 48.53125 15.140625 C 55.019531 15.140625 60.3125 19.921875 60.386719 25.828125 C 60.914062 25.730469 61.441406 25.683594 61.964844 25.683594 C 65.984375 25.683594 69.257812 28.355469 69.257812 31.640625 C 69.257812 34.925781 65.984375 37.597656 61.964844 37.597656 C 60.289062 37.597656 58.667969 37.125 57.367188 36.261719 C 54.457031 40.433594 48.796875 43.011719 42.515625 43.011719 Z M 30.835938 38.84375 C 30.894531 38.84375 30.949219 38.859375 31 38.898438 C 34.070312 41.199219 38.160156 42.46875 42.515625 42.46875 C 48.730469 42.46875 54.308594 39.886719 57.070312 35.734375 C 57.113281 35.671875 57.175781 35.628906 57.25 35.617188 C 57.320312 35.605469 57.398438 35.621094 57.457031 35.664062 C 58.699219 36.5625 60.300781 37.058594 61.960938 37.058594 C 65.683594 37.058594 68.710938 34.628906 68.710938 31.644531 C 68.710938 28.65625 65.683594 26.226562 61.960938 26.226562 C 61.367188 26.226562 60.761719 26.292969 60.160156 26.429688 C 60.078125 26.449219 59.992188 26.429688 59.929688 26.371094 C 59.863281 26.316406 59.828125 26.242188 59.832031 26.15625 C 59.832031 26.121094 59.835938 26.082031 59.835938 26.046875 C 59.839844 26.015625 59.839844 25.984375 59.839844 25.957031 C 59.839844 20.292969 54.765625 15.6875 48.527344 15.6875 C 48.320312 15.6875 48.117188 15.699219 47.914062 15.710938 L 47.777344 15.71875 C 47.640625 15.730469 47.519531 15.632812 47.496094 15.5 C 46.136719 8.480469 39.453125 3.386719 31.601562 3.386719 C 22.699219 3.386719 15.457031 9.964844 15.457031 18.050781 C 15.457031 19.003906 15.5625 19.960938 15.765625 20.902344 C 15.796875 21.039062 15.710938 21.179688 15.574219 21.21875 C 10.015625 22.789062 6.285156 26.804688 6.285156 31.21875 C 6.285156 37.117188 12.738281 41.914062 20.667969 41.914062 C 24.421875 41.914062 27.976562 40.84375 30.675781 38.894531 C 30.722656 38.859375 30.777344 38.84375 30.835938 38.84375 Z M 30.835938 38.84375 " fill-opacity="1" fill-rule="nonzero"/></g><path fill="#60a2d7" d="M 17.503906 54.621094 L 16.683594 54.054688 L 17.53125 53.53125 C 17.902344 53.300781 18.015625 52.816406 17.789062 52.445312 C 17.558594 52.074219 17.074219 51.960938 16.703125 52.1875 L 16.03125 52.605469 L 16.03125 51.8125 C 16.03125 51.378906 15.675781 51.023438 15.242188 51.023438 C 14.804688 51.023438 14.453125 51.378906 14.453125 51.8125 L 14.453125 52.515625 L 13.875 52.113281 C 13.515625 51.867188 13.027344 51.957031 12.777344 52.316406 C 12.53125 52.671875 12.621094 53.164062 12.976562 53.414062 L 13.796875 53.980469 L 12.949219 54.503906 C 12.578125 54.734375 12.464844 55.21875 12.695312 55.589844 C 12.921875 55.960938 13.40625 56.074219 13.777344 55.847656 L 14.453125 55.429688 L 14.453125 56.222656 C 14.453125 56.65625 14.804688 57.011719 15.242188 57.011719 C 15.675781 57.011719 16.03125 56.65625 16.03125 56.222656 L 16.03125 55.519531 L 16.605469 55.917969 C 16.964844 56.167969 17.457031 56.078125 17.703125 55.71875 C 17.953125 55.359375 17.859375 54.867188 17.503906 54.621094 Z M 17.503906 54.621094 " fill-opacity="1" fill-rule="nonzero"/><path fill="#ffffff" d="M 15.242188 57.214844 C 14.691406 57.214844 14.25 56.769531 14.25 56.222656 L 14.25 55.792969 L 13.886719 56.019531 C 13.660156 56.15625 13.394531 56.199219 13.136719 56.140625 C 12.875 56.078125 12.660156 55.917969 12.519531 55.695312 C 12.382812 55.46875 12.335938 55.203125 12.398438 54.945312 C 12.457031 54.6875 12.617188 54.46875 12.84375 54.328125 L 13.425781 53.96875 L 12.863281 53.578125 C 12.410156 53.265625 12.300781 52.648438 12.609375 52.195312 C 12.761719 51.980469 12.988281 51.832031 13.246094 51.785156 C 13.511719 51.738281 13.773438 51.792969 13.988281 51.945312 L 14.246094 52.121094 L 14.246094 51.808594 C 14.246094 51.261719 14.691406 50.816406 15.238281 50.816406 C 15.785156 50.816406 16.230469 51.261719 16.230469 51.808594 L 16.230469 52.234375 L 16.59375 52.011719 C 17.058594 51.726562 17.671875 51.871094 17.957031 52.335938 C 18.097656 52.5625 18.140625 52.828125 18.078125 53.085938 C 18.019531 53.34375 17.859375 53.5625 17.632812 53.703125 L 17.050781 54.0625 L 17.613281 54.453125 C 17.832031 54.605469 17.980469 54.832031 18.027344 55.089844 C 18.074219 55.351562 18.019531 55.617188 17.867188 55.832031 C 17.714844 56.050781 17.488281 56.199219 17.230469 56.246094 C 16.96875 56.292969 16.703125 56.238281 16.488281 56.085938 L 16.230469 55.910156 L 16.230469 56.222656 C 16.230469 56.769531 15.785156 57.214844 15.238281 57.214844 Z M 14.453125 55.226562 C 14.488281 55.226562 14.523438 55.234375 14.550781 55.253906 C 14.617188 55.289062 14.65625 55.355469 14.65625 55.429688 L 14.65625 56.222656 C 14.65625 56.542969 14.917969 56.804688 15.242188 56.804688 C 15.5625 56.804688 15.824219 56.542969 15.824219 56.222656 L 15.824219 55.519531 C 15.824219 55.445312 15.867188 55.375 15.933594 55.339844 C 16 55.304688 16.082031 55.308594 16.144531 55.351562 L 16.722656 55.75 C 16.851562 55.835938 17.007812 55.871094 17.160156 55.84375 C 17.3125 55.816406 17.445312 55.730469 17.535156 55.601562 C 17.625 55.472656 17.65625 55.316406 17.628906 55.164062 C 17.601562 55.007812 17.515625 54.875 17.386719 54.789062 L 16.566406 54.21875 C 16.511719 54.179688 16.476562 54.117188 16.476562 54.046875 C 16.476562 53.976562 16.515625 53.914062 16.574219 53.878906 L 17.421875 53.355469 C 17.558594 53.273438 17.648438 53.144531 17.6875 52.992188 C 17.722656 52.839844 17.695312 52.683594 17.613281 52.550781 C 17.445312 52.277344 17.085938 52.191406 16.8125 52.359375 L 16.136719 52.777344 C 16.074219 52.816406 15.996094 52.816406 15.929688 52.78125 C 15.867188 52.746094 15.828125 52.679688 15.828125 52.605469 L 15.828125 51.8125 C 15.828125 51.488281 15.5625 51.230469 15.242188 51.230469 C 14.921875 51.230469 14.660156 51.492188 14.660156 51.8125 L 14.660156 52.515625 C 14.660156 52.589844 14.617188 52.660156 14.546875 52.695312 C 14.480469 52.730469 14.398438 52.726562 14.335938 52.683594 L 13.761719 52.285156 C 13.632812 52.195312 13.480469 52.160156 13.324219 52.1875 C 13.171875 52.214844 13.035156 52.300781 12.949219 52.433594 C 12.765625 52.699219 12.832031 53.0625 13.097656 53.246094 L 13.917969 53.8125 C 13.972656 53.851562 14.003906 53.914062 14.003906 53.984375 C 14.003906 54.054688 13.964844 54.117188 13.90625 54.152344 L 13.058594 54.675781 C 12.925781 54.757812 12.832031 54.886719 12.796875 55.039062 C 12.761719 55.191406 12.785156 55.347656 12.867188 55.480469 C 12.949219 55.617188 13.078125 55.707031 13.230469 55.746094 C 13.382812 55.777344 13.539062 55.753906 13.671875 55.671875 L 14.34375 55.257812 C 14.378906 55.238281 14.414062 55.226562 14.453125 55.226562 Z M 14.453125 55.226562 " fill-opacity="1" fill-rule="nonzero"/><path fill="#60a2d7" d="M 47.507812 55.59375 L 46.6875 55.027344 L 47.535156 54.503906 C 47.90625 54.273438 48.019531 53.789062 47.792969 53.417969 C 47.5625 53.046875 47.078125 52.933594 46.707031 53.160156 L 46.035156 53.578125 L 46.035156 52.785156 C 46.035156 52.351562 45.679688 51.996094 45.246094 51.996094 C 44.808594 51.996094 44.457031 52.351562 44.457031 52.785156 L 44.457031 53.488281 L 43.878906 53.085938 C 43.523438 52.839844 43.03125 52.929688 42.78125 53.289062 C 42.535156 53.644531 42.625 54.136719 42.984375 54.386719 L 43.800781 54.953125 L 42.953125 55.476562 C 42.582031 55.707031 42.46875 56.191406 42.699219 56.5625 C 42.925781 56.933594 43.410156 57.046875 43.78125 56.820312 L 44.457031 56.402344 L 44.457031 57.195312 C 44.457031 57.628906 44.808594 57.984375 45.246094 57.984375 C 45.679688 57.984375 46.035156 57.628906 46.035156 57.195312 L 46.035156 56.492188 L 46.609375 56.890625 C 46.96875 57.140625 47.460938 57.050781 47.707031 56.691406 C 47.957031 56.332031 47.867188 55.839844 47.507812 55.59375 Z M 47.507812 55.59375 " fill-opacity="1" fill-rule="nonzero"/><path fill="#ffffff" d="M 45.246094 58.1875 C 44.699219 58.1875 44.253906 57.742188 44.253906 57.195312 L 44.253906 56.765625 L 43.890625 56.992188 C 43.425781 57.277344 42.8125 57.132812 42.527344 56.667969 C 42.238281 56.203125 42.382812 55.589844 42.847656 55.300781 L 43.429688 54.941406 L 42.867188 54.550781 C 42.417969 54.242188 42.304688 53.621094 42.617188 53.171875 C 42.929688 52.722656 43.546875 52.605469 43.996094 52.917969 L 44.253906 53.097656 L 44.253906 52.785156 C 44.253906 52.234375 44.699219 51.792969 45.246094 51.792969 C 45.792969 51.792969 46.238281 52.234375 46.238281 52.785156 L 46.238281 53.207031 L 46.597656 52.984375 C 46.824219 52.847656 47.089844 52.804688 47.351562 52.863281 C 47.609375 52.925781 47.828125 53.082031 47.964844 53.308594 C 48.253906 53.773438 48.109375 54.386719 47.644531 54.671875 L 47.0625 55.03125 L 47.625 55.421875 C 48.074219 55.734375 48.1875 56.351562 47.875 56.804688 C 47.726562 57.019531 47.5 57.167969 47.238281 57.214844 C 46.976562 57.261719 46.714844 57.207031 46.496094 57.054688 L 46.238281 56.878906 L 46.238281 57.191406 C 46.238281 57.738281 45.796875 58.183594 45.246094 58.183594 Z M 44.457031 56.199219 C 44.492188 56.199219 44.527344 56.207031 44.558594 56.226562 C 44.621094 56.261719 44.660156 56.328125 44.660156 56.402344 L 44.660156 57.195312 C 44.660156 57.515625 44.921875 57.777344 45.246094 57.777344 C 45.566406 57.777344 45.828125 57.515625 45.828125 57.195312 L 45.828125 56.492188 C 45.828125 56.417969 45.871094 56.347656 45.941406 56.3125 C 46.007812 56.277344 46.089844 56.28125 46.152344 56.324219 L 46.726562 56.722656 C 46.855469 56.808594 47.007812 56.84375 47.164062 56.816406 C 47.316406 56.789062 47.453125 56.703125 47.539062 56.574219 C 47.722656 56.308594 47.65625 55.941406 47.390625 55.757812 L 46.570312 55.191406 C 46.515625 55.152344 46.484375 55.089844 46.484375 55.019531 C 46.484375 54.949219 46.523438 54.886719 46.578125 54.851562 L 47.425781 54.328125 C 47.703125 54.160156 47.789062 53.796875 47.617188 53.523438 C 47.535156 53.390625 47.40625 53.296875 47.253906 53.261719 C 47.105469 53.222656 46.945312 53.25 46.8125 53.332031 L 46.140625 53.746094 C 46.078125 53.785156 45.996094 53.785156 45.933594 53.75 C 45.867188 53.714844 45.828125 53.644531 45.828125 53.574219 L 45.828125 52.78125 C 45.828125 52.457031 45.566406 52.195312 45.246094 52.195312 C 44.921875 52.195312 44.660156 52.460938 44.660156 52.78125 L 44.660156 53.480469 C 44.660156 53.558594 44.621094 53.625 44.550781 53.664062 C 44.484375 53.699219 44.402344 53.695312 44.339844 53.652344 L 43.761719 53.25 C 43.5 53.066406 43.132812 53.136719 42.949219 53.402344 C 42.765625 53.664062 42.835938 54.03125 43.097656 54.214844 L 43.917969 54.78125 C 43.976562 54.820312 44.007812 54.882812 44.007812 54.953125 C 44.007812 55.023438 43.96875 55.085938 43.910156 55.121094 L 43.0625 55.644531 C 42.789062 55.8125 42.703125 56.175781 42.871094 56.449219 C 43.042969 56.726562 43.402344 56.808594 43.675781 56.640625 L 44.351562 56.226562 C 44.382812 56.207031 44.417969 56.195312 44.457031 56.195312 Z M 44.457031 56.199219 " fill-opacity="1" fill-rule="nonzero"/><path fill="#60a2d7" d="M 56.453125 63.996094 L 55.636719 63.429688 L 56.484375 62.90625 C 56.855469 62.679688 56.96875 62.191406 56.738281 61.820312 C 56.511719 61.449219 56.027344 61.335938 55.65625 61.566406 L 54.980469 61.980469 L 54.980469 61.191406 C 54.980469 60.753906 54.628906 60.402344 54.191406 60.402344 C 53.757812 60.402344 53.402344 60.753906 53.402344 61.191406 L 53.402344 61.890625 L 52.828125 61.492188 C 52.46875 61.242188 51.976562 61.335938 51.730469 61.691406 C 51.480469 62.050781 51.574219 62.542969 51.929688 62.789062 L 52.75 63.355469 L 51.902344 63.882812 C 51.53125 64.109375 51.417969 64.59375 51.644531 64.964844 C 51.875 65.335938 52.359375 65.453125 52.730469 65.222656 L 53.402344 64.804688 L 53.402344 65.597656 C 53.402344 66.035156 53.757812 66.386719 54.191406 66.386719 C 54.628906 66.386719 54.980469 66.035156 54.980469 65.597656 L 54.980469 64.898438 L 55.558594 65.296875 C 55.914062 65.542969 56.40625 65.453125 56.65625 65.09375 C 56.902344 64.738281 56.8125 64.246094 56.453125 63.996094 Z M 56.453125 63.996094 " fill-opacity="1" fill-rule="nonzero"/><path fill="#ffffff" d="M 54.195312 66.589844 C 53.648438 66.589844 53.203125 66.144531 53.203125 65.597656 L 53.203125 65.171875 L 52.839844 65.398438 C 52.613281 65.535156 52.347656 65.578125 52.089844 65.519531 C 51.832031 65.457031 51.613281 65.300781 51.472656 65.074219 C 51.1875 64.609375 51.332031 63.996094 51.796875 63.707031 L 52.378906 63.347656 L 51.816406 62.957031 C 51.367188 62.648438 51.253906 62.027344 51.5625 61.578125 C 51.714844 61.359375 51.941406 61.214844 52.203125 61.167969 C 52.464844 61.117188 52.726562 61.175781 52.945312 61.324219 L 53.199219 61.503906 L 53.199219 61.191406 C 53.199219 60.640625 53.644531 60.199219 54.191406 60.199219 C 54.742188 60.199219 55.183594 60.640625 55.183594 61.191406 L 55.183594 61.617188 L 55.546875 61.394531 C 55.769531 61.253906 56.039062 61.210938 56.296875 61.273438 C 56.554688 61.332031 56.773438 61.492188 56.914062 61.714844 C 57.203125 62.183594 57.058594 62.792969 56.589844 63.082031 L 56.007812 63.441406 L 56.570312 63.832031 C 57.019531 64.140625 57.132812 64.761719 56.824219 65.210938 C 56.671875 65.429688 56.445312 65.578125 56.183594 65.625 C 55.925781 65.671875 55.660156 65.617188 55.445312 65.464844 L 55.1875 65.289062 L 55.1875 65.601562 C 55.1875 66.148438 54.742188 66.59375 54.195312 66.59375 Z M 53.40625 64.605469 C 53.441406 64.605469 53.476562 64.613281 53.503906 64.628906 C 53.570312 64.667969 53.609375 64.734375 53.609375 64.804688 L 53.609375 65.597656 C 53.609375 65.921875 53.871094 66.183594 54.191406 66.183594 C 54.515625 66.183594 54.777344 65.917969 54.777344 65.597656 L 54.777344 64.898438 C 54.777344 64.820312 54.816406 64.753906 54.886719 64.714844 C 54.953125 64.679688 55.035156 64.6875 55.097656 64.730469 L 55.675781 65.128906 C 55.804688 65.214844 55.957031 65.25 56.113281 65.222656 C 56.265625 65.195312 56.398438 65.109375 56.488281 64.980469 C 56.671875 64.714844 56.605469 64.347656 56.339844 64.167969 L 55.519531 63.597656 C 55.464844 63.558594 55.429688 63.496094 55.429688 63.425781 C 55.429688 63.355469 55.46875 63.292969 55.527344 63.257812 L 56.375 62.734375 C 56.648438 62.566406 56.734375 62.203125 56.566406 61.929688 C 56.484375 61.796875 56.355469 61.703125 56.203125 61.667969 C 56.050781 61.628906 55.894531 61.65625 55.761719 61.738281 L 55.085938 62.152344 C 55.023438 62.191406 54.945312 62.195312 54.878906 62.160156 C 54.816406 62.121094 54.777344 62.054688 54.777344 61.980469 L 54.777344 61.191406 C 54.777344 60.867188 54.515625 60.605469 54.191406 60.605469 C 53.871094 60.605469 53.609375 60.867188 53.609375 61.191406 L 53.609375 61.890625 C 53.609375 61.964844 53.566406 62.035156 53.5 62.070312 C 53.429688 62.105469 53.347656 62.101562 53.285156 62.058594 L 52.710938 61.664062 C 52.582031 61.574219 52.425781 61.542969 52.273438 61.566406 C 52.121094 61.59375 51.988281 61.683594 51.898438 61.8125 C 51.714844 62.078125 51.78125 62.441406 52.046875 62.625 L 52.867188 63.191406 C 52.921875 63.230469 52.953125 63.292969 52.953125 63.363281 C 52.953125 63.433594 52.917969 63.496094 52.859375 63.53125 L 52.011719 64.054688 C 51.738281 64.222656 51.648438 64.585938 51.820312 64.859375 C 51.902344 64.996094 52.03125 65.085938 52.183594 65.125 C 52.332031 65.160156 52.492188 65.132812 52.625 65.050781 L 53.296875 64.636719 C 53.332031 64.617188 53.367188 64.609375 53.40625 64.609375 Z M 53.40625 64.605469 " fill-opacity="1" fill-rule="nonzero"/><g clip-path="url(#4266cc6634)"><path fill="#60a2d7" d="M 33.644531 49.199219 L 32.375 48.324219 L 33.6875 47.515625 C 34.257812 47.164062 34.4375 46.414062 34.082031 45.839844 C 33.730469 45.269531 32.980469 45.089844 32.40625 45.445312 L 31.367188 46.085938 L 31.367188 44.863281 C 31.367188 44.191406 30.820312 43.648438 30.152344 43.648438 C 29.480469 43.648438 28.933594 44.195312 28.933594 44.863281 L 28.933594 45.945312 L 28.042969 45.332031 C 27.492188 44.949219 26.734375 45.085938 26.351562 45.640625 C 25.96875 46.191406 26.109375 46.953125 26.660156 47.332031 L 27.929688 48.207031 L 26.617188 49.015625 C 26.046875 49.371094 25.867188 50.117188 26.222656 50.691406 C 26.574219 51.261719 27.324219 51.441406 27.898438 51.089844 L 28.9375 50.449219 L 28.9375 51.667969 C 28.9375 52.339844 29.484375 52.886719 30.152344 52.886719 C 30.824219 52.886719 31.371094 52.339844 31.371094 51.667969 L 31.371094 50.589844 L 32.261719 51.203125 C 32.8125 51.585938 33.570312 51.445312 33.953125 50.890625 C 34.335938 50.339844 34.195312 49.582031 33.644531 49.199219 Z M 33.644531 49.199219 " fill-opacity="1" fill-rule="nonzero"/></g><g clip-path="url(#d456d6f003)"><path fill="#ffffff" d="M 30.152344 53.089844 C 29.371094 53.089844 28.730469 52.453125 28.730469 51.667969 L 28.730469 50.8125 L 28.003906 51.261719 C 27.679688 51.460938 27.296875 51.523438 26.929688 51.433594 C 26.558594 51.34375 26.246094 51.121094 26.046875 50.796875 C 25.636719 50.132812 25.84375 49.253906 26.511719 48.839844 L 27.554688 48.199219 L 26.546875 47.503906 C 25.902344 47.054688 25.738281 46.167969 26.183594 45.523438 C 26.628906 44.878906 27.515625 44.71875 28.160156 45.164062 L 28.730469 45.558594 L 28.730469 44.863281 C 28.730469 44.082031 29.367188 43.445312 30.152344 43.445312 C 30.933594 43.445312 31.574219 44.078125 31.574219 44.863281 L 31.574219 45.722656 L 32.300781 45.273438 C 32.96875 44.863281 33.84375 45.070312 34.253906 45.734375 C 34.667969 46.402344 34.457031 47.28125 33.792969 47.691406 L 32.746094 48.335938 L 33.757812 49.03125 C 34.402344 49.476562 34.5625 50.363281 34.121094 51.007812 C 33.671875 51.652344 32.785156 51.8125 32.144531 51.367188 L 31.574219 50.972656 L 31.574219 51.667969 C 31.574219 52.449219 30.9375 53.085938 30.152344 53.085938 Z M 28.9375 50.246094 C 28.972656 50.246094 29.007812 50.253906 29.035156 50.269531 C 29.101562 50.308594 29.140625 50.375 29.140625 50.449219 L 29.140625 51.667969 C 29.140625 52.226562 29.59375 52.683594 30.152344 52.683594 C 30.710938 52.683594 31.167969 52.226562 31.167969 51.667969 L 31.167969 50.589844 C 31.167969 50.511719 31.207031 50.445312 31.277344 50.40625 C 31.34375 50.371094 31.425781 50.375 31.488281 50.421875 L 32.378906 51.035156 C 32.839844 51.351562 33.472656 51.234375 33.789062 50.777344 C 34.105469 50.320312 33.988281 49.683594 33.53125 49.367188 L 32.265625 48.492188 C 32.207031 48.453125 32.175781 48.386719 32.175781 48.320312 C 32.179688 48.25 32.214844 48.1875 32.273438 48.152344 L 33.582031 47.34375 C 34.058594 47.050781 34.207031 46.425781 33.914062 45.953125 C 33.617188 45.476562 32.992188 45.328125 32.515625 45.621094 L 31.476562 46.261719 C 31.414062 46.300781 31.335938 46.304688 31.269531 46.265625 C 31.207031 46.230469 31.167969 46.164062 31.167969 46.089844 L 31.167969 44.867188 C 31.167969 44.308594 30.710938 43.855469 30.152344 43.855469 C 29.59375 43.855469 29.140625 44.308594 29.140625 44.867188 L 29.140625 45.949219 C 29.140625 46.023438 29.097656 46.09375 29.03125 46.128906 C 28.964844 46.164062 28.882812 46.160156 28.820312 46.117188 L 27.929688 45.503906 C 27.46875 45.1875 26.835938 45.300781 26.515625 45.757812 C 26.199219 46.21875 26.316406 46.851562 26.777344 47.171875 L 28.042969 48.042969 C 28.097656 48.082031 28.132812 48.148438 28.128906 48.214844 C 28.128906 48.285156 28.089844 48.347656 28.035156 48.382812 L 26.722656 49.191406 C 26.25 49.484375 26.101562 50.109375 26.394531 50.582031 C 26.6875 51.058594 27.3125 51.207031 27.789062 50.914062 L 28.828125 50.273438 C 28.859375 50.253906 28.894531 50.242188 28.933594 50.242188 Z M 28.9375 50.246094 " fill-opacity="1" fill-rule="nonzero"/></g><g clip-path="url(#9f74ce2959)"><path fill="#60a2d7" d="M 36.429688 65.113281 L 35.164062 64.242188 L 36.472656 63.433594 C 37.046875 63.078125 37.226562 62.332031 36.871094 61.757812 C 36.515625 61.183594 35.769531 61.007812 35.195312 61.359375 L 34.15625 62 L 34.15625 60.78125 C 34.15625 60.109375 33.609375 59.5625 32.941406 59.5625 C 32.269531 59.5625 31.722656 60.109375 31.722656 60.78125 L 31.722656 61.859375 L 30.832031 61.246094 C 30.28125 60.863281 29.519531 61.003906 29.140625 61.558594 C 28.757812 62.109375 28.894531 62.867188 29.449219 63.25 L 30.714844 64.121094 L 29.40625 64.933594 C 28.835938 65.285156 28.65625 66.035156 29.011719 66.605469 C 29.363281 67.179688 30.113281 67.359375 30.6875 67.003906 L 31.726562 66.363281 L 31.726562 67.585938 C 31.726562 68.257812 32.269531 68.800781 32.941406 68.800781 C 33.613281 68.800781 34.15625 68.253906 34.15625 67.585938 L 34.15625 66.503906 L 35.046875 67.117188 C 35.601562 67.5 36.359375 67.363281 36.742188 66.808594 C 37.125 66.253906 36.984375 65.496094 36.429688 65.113281 Z M 36.429688 65.113281 " fill-opacity="1" fill-rule="nonzero"/><path fill="#ffffff" d="M 32.941406 69.003906 C 32.160156 69.003906 31.519531 68.371094 31.519531 67.585938 L 31.519531 66.726562 L 30.792969 67.175781 C 30.46875 67.375 30.089844 67.4375 29.71875 67.347656 C 29.347656 67.261719 29.035156 67.035156 28.835938 66.714844 C 28.636719 66.390625 28.574219 66.011719 28.664062 65.640625 C 28.75 65.273438 28.976562 64.960938 29.300781 64.757812 L 30.34375 64.113281 L 29.332031 63.417969 C 29.019531 63.203125 28.8125 62.878906 28.742188 62.503906 C 28.675781 62.128906 28.757812 61.753906 28.972656 61.441406 C 29.1875 61.128906 29.511719 60.917969 29.882812 60.847656 C 30.257812 60.78125 30.632812 60.863281 30.945312 61.078125 L 31.519531 61.472656 L 31.519531 60.777344 C 31.519531 59.996094 32.15625 59.355469 32.941406 59.355469 C 33.722656 59.355469 34.359375 59.992188 34.359375 60.777344 L 34.359375 61.632812 L 35.089844 61.1875 C 35.414062 60.988281 35.796875 60.925781 36.164062 61.011719 C 36.53125 61.101562 36.84375 61.324219 37.046875 61.648438 C 37.246094 61.972656 37.308594 62.355469 37.21875 62.722656 C 37.128906 63.09375 36.90625 63.40625 36.582031 63.605469 L 35.539062 64.25 L 36.546875 64.945312 C 36.859375 65.164062 37.070312 65.484375 37.136719 65.859375 C 37.207031 66.234375 37.125 66.613281 36.910156 66.925781 C 36.464844 67.570312 35.578125 67.730469 34.933594 67.285156 L 34.363281 66.890625 L 34.363281 67.585938 C 34.363281 68.371094 33.726562 69.007812 32.945312 69.007812 Z M 31.722656 66.160156 C 31.757812 66.160156 31.792969 66.167969 31.824219 66.1875 C 31.886719 66.222656 31.925781 66.289062 31.925781 66.363281 L 31.925781 67.585938 C 31.925781 68.144531 32.382812 68.597656 32.941406 68.597656 C 33.5 68.597656 33.953125 68.144531 33.953125 67.585938 L 33.953125 66.5 C 33.953125 66.425781 33.996094 66.355469 34.0625 66.320312 C 34.128906 66.285156 34.210938 66.289062 34.273438 66.332031 L 35.164062 66.949219 C 35.625 67.265625 36.257812 67.152344 36.574219 66.6875 C 36.730469 66.46875 36.785156 66.199219 36.738281 65.929688 C 36.691406 65.664062 36.542969 65.433594 36.320312 65.277344 L 35.054688 64.40625 C 34.996094 64.367188 34.964844 64.300781 34.964844 64.234375 C 34.964844 64.164062 35.003906 64.101562 35.0625 64.066406 L 36.371094 63.257812 C 36.601562 63.113281 36.761719 62.890625 36.824219 62.625 C 36.886719 62.363281 36.84375 62.089844 36.699219 61.859375 C 36.558594 61.628906 36.335938 61.46875 36.070312 61.40625 C 35.808594 61.34375 35.535156 61.386719 35.304688 61.53125 L 34.265625 62.171875 C 34.203125 62.210938 34.125 62.210938 34.058594 62.175781 C 33.996094 62.140625 33.957031 62.070312 33.957031 62 L 33.957031 60.777344 C 33.957031 60.21875 33.5 59.765625 32.941406 59.765625 C 32.382812 59.765625 31.929688 60.21875 31.929688 60.777344 L 31.929688 61.859375 C 31.929688 61.9375 31.886719 62.003906 31.816406 62.042969 C 31.75 62.078125 31.667969 62.070312 31.605469 62.027344 L 30.714844 61.414062 C 30.492188 61.261719 30.222656 61.199219 29.957031 61.25 C 29.691406 61.296875 29.457031 61.449219 29.304688 61.671875 C 29.152344 61.894531 29.09375 62.164062 29.140625 62.429688 C 29.191406 62.695312 29.339844 62.929688 29.5625 63.082031 L 30.828125 63.953125 C 30.882812 63.992188 30.917969 64.058594 30.917969 64.128906 C 30.917969 64.195312 30.878906 64.257812 30.820312 64.296875 L 29.511719 65.105469 C 29.28125 65.246094 29.117188 65.46875 29.058594 65.734375 C 28.996094 65.996094 29.039062 66.269531 29.179688 66.5 C 29.324219 66.730469 29.546875 66.890625 29.808594 66.953125 C 30.074219 67.015625 30.34375 66.972656 30.574219 66.832031 L 31.617188 66.191406 C 31.648438 66.171875 31.683594 66.160156 31.722656 66.160156 Z M 31.722656 66.160156 " fill-opacity="1" fill-rule="nonzero"/></g><g clip-path="url(#6c6fc00288)"><path fill="#60a2d7" d="M 61.796875 49.199219 L 60.53125 48.324219 L 61.839844 47.515625 C 62.410156 47.164062 62.589844 46.414062 62.238281 45.839844 C 61.882812 45.269531 61.136719 45.089844 60.5625 45.445312 L 59.523438 46.085938 L 59.523438 44.863281 C 59.523438 44.191406 58.976562 43.648438 58.304688 43.648438 C 57.632812 43.648438 57.089844 44.195312 57.089844 44.863281 L 57.089844 45.945312 L 56.199219 45.332031 C 55.644531 44.949219 54.886719 45.085938 54.503906 45.640625 C 54.125 46.191406 54.261719 46.953125 54.816406 47.332031 L 56.082031 48.207031 L 54.773438 49.015625 C 54.203125 49.371094 54.023438 50.117188 54.375 50.691406 C 54.730469 51.265625 55.476562 51.441406 56.050781 51.089844 L 57.089844 50.449219 L 57.089844 51.667969 C 57.089844 52.339844 57.636719 52.886719 58.308594 52.886719 C 58.976562 52.886719 59.523438 52.339844 59.523438 51.667969 L 59.523438 50.589844 L 60.414062 51.203125 C 60.964844 51.585938 61.726562 51.445312 62.109375 50.890625 C 62.488281 50.339844 62.351562 49.582031 61.796875 49.199219 Z M 61.796875 49.199219 " fill-opacity="1" fill-rule="nonzero"/></g><g clip-path="url(#a2ce74f8b6)"><path fill="#ffffff" d="M 58.304688 53.089844 C 57.523438 53.089844 56.882812 52.453125 56.882812 51.667969 L 56.882812 50.8125 L 56.15625 51.261719 C 55.832031 51.460938 55.449219 51.523438 55.082031 51.433594 C 54.710938 51.34375 54.398438 51.121094 54.199219 50.796875 C 53.789062 50.132812 53.996094 49.253906 54.664062 48.839844 L 55.707031 48.199219 L 54.699219 47.503906 C 54.050781 47.054688 53.890625 46.167969 54.335938 45.523438 C 54.78125 44.878906 55.664062 44.71875 56.3125 45.164062 L 56.882812 45.558594 L 56.882812 44.863281 C 56.882812 44.082031 57.519531 43.445312 58.304688 43.445312 C 59.085938 43.445312 59.722656 44.078125 59.722656 44.863281 L 59.722656 45.722656 L 60.453125 45.273438 C 61.121094 44.863281 61.996094 45.070312 62.40625 45.734375 C 62.820312 46.402344 62.609375 47.28125 61.945312 47.691406 L 60.898438 48.335938 L 61.910156 49.03125 C 62.554688 49.476562 62.714844 50.363281 62.269531 51.007812 C 61.824219 51.652344 60.9375 51.8125 60.296875 51.367188 L 59.722656 50.972656 L 59.722656 51.667969 C 59.722656 52.449219 59.089844 53.085938 58.304688 53.085938 Z M 57.089844 50.246094 C 57.125 50.246094 57.15625 50.253906 57.1875 50.269531 C 57.253906 50.308594 57.292969 50.375 57.292969 50.449219 L 57.292969 51.667969 C 57.292969 52.226562 57.746094 52.683594 58.304688 52.683594 C 58.863281 52.683594 59.320312 52.226562 59.320312 51.667969 L 59.320312 50.589844 C 59.320312 50.511719 59.359375 50.445312 59.429688 50.40625 C 59.496094 50.371094 59.578125 50.375 59.640625 50.421875 L 60.53125 51.035156 C 60.992188 51.351562 61.625 51.234375 61.941406 50.777344 C 62.09375 50.554688 62.152344 50.285156 62.105469 50.019531 C 62.054688 49.753906 61.90625 49.523438 61.683594 49.367188 L 60.417969 48.492188 C 60.363281 48.453125 60.328125 48.386719 60.332031 48.320312 C 60.332031 48.25 60.371094 48.1875 60.425781 48.152344 L 61.738281 47.34375 C 62.210938 47.050781 62.359375 46.425781 62.066406 45.953125 C 61.773438 45.476562 61.148438 45.328125 60.671875 45.621094 L 59.632812 46.261719 C 59.570312 46.300781 59.488281 46.304688 59.425781 46.265625 C 59.359375 46.230469 59.320312 46.164062 59.320312 46.089844 L 59.320312 44.867188 C 59.320312 44.308594 58.867188 43.855469 58.308594 43.855469 C 57.75 43.855469 57.292969 44.308594 57.292969 44.867188 L 57.292969 45.949219 C 57.292969 46.023438 57.253906 46.09375 57.183594 46.128906 C 57.113281 46.167969 57.035156 46.160156 56.972656 46.117188 L 56.082031 45.503906 C 55.621094 45.1875 54.988281 45.300781 54.671875 45.757812 C 54.355469 46.21875 54.472656 46.851562 54.929688 47.171875 L 56.195312 48.042969 C 56.253906 48.082031 56.285156 48.148438 56.285156 48.214844 C 56.285156 48.285156 56.246094 48.347656 56.1875 48.382812 L 54.878906 49.191406 C 54.402344 49.484375 54.253906 50.109375 54.546875 50.582031 C 54.84375 51.058594 55.46875 51.207031 55.941406 50.914062 L 56.980469 50.273438 C 57.011719 50.253906 57.050781 50.242188 57.089844 50.242188 Z M 57.089844 50.246094 " fill-opacity="1" fill-rule="nonzero"/></g></svg>