<svg xmlns="http://www.w3.org/2000/svg" xmlns:xlink="http://www.w3.org/1999/xlink" width="100" zoomAndPan="magnify" viewBox="0 0 75 74.999997" height="100" preserveAspectRatio="xMidYMid meet" version="1.0"><defs><clipPath id="db41e83532"><path d="M 0.84375 1 L 74.34375 1 L 74.34375 45 L 0.84375 45 Z M 0.84375 1 " clip-rule="nonzero"/></clipPath></defs><path fill="#f5c12e" d="M 47.511719 49.71875 L 41.644531 49.71875 L 44.058594 43.683594 C 44.277344 43.140625 44.222656 42.625 43.894531 42.136719 C 43.5625 41.648438 43.101562 41.40625 42.511719 41.40625 L 32.511719 41.40625 C 32.160156 41.40625 31.84375 41.503906 31.558594 41.703125 C 31.269531 41.898438 31.066406 42.160156 30.945312 42.488281 L 25.945312 55.785156 C 25.898438 55.914062 25.863281 56.042969 25.847656 56.175781 C 25.832031 56.308594 25.835938 56.441406 25.851562 56.578125 C 25.867188 56.710938 25.902344 56.839844 25.949219 56.964844 C 25.996094 57.089844 26.058594 57.207031 26.136719 57.320312 C 26.214844 57.429688 26.304688 57.527344 26.40625 57.617188 C 26.507812 57.707031 26.617188 57.78125 26.734375 57.84375 C 26.855469 57.90625 26.980469 57.953125 27.113281 57.984375 C 27.242188 58.015625 27.375 58.03125 27.511719 58.03125 L 31.945312 58.03125 L 27.511719 72.511719 C 27.394531 72.886719 27.414062 73.261719 27.5625 73.625 C 27.714844 73.992188 27.960938 74.265625 28.308594 74.457031 C 28.582031 74.601562 28.871094 74.667969 29.175781 74.65625 C 29.6875 74.65625 30.109375 74.460938 30.445312 74.074219 L 48.777344 52.460938 C 48.988281 52.214844 49.117188 51.929688 49.160156 51.609375 C 49.207031 51.289062 49.160156 50.980469 49.023438 50.6875 C 48.886719 50.390625 48.683594 50.15625 48.410156 49.980469 C 48.136719 49.804688 47.835938 49.71875 47.511719 49.71875 Z M 47.511719 49.71875 " fill-opacity="1" fill-rule="nonzero"/><g clip-path="url(#db41e83532)"><path fill="#d1d1d1" d="M 62.292969 22.15625 C 62.648438 20.203125 62.566406 18.269531 62.042969 16.355469 C 61.738281 15.21875 61.289062 14.144531 60.699219 13.128906 C 60.105469 12.113281 59.394531 11.191406 58.554688 10.367188 C 57.71875 9.539062 56.789062 8.835938 55.769531 8.253906 C 54.746094 7.671875 53.664062 7.234375 52.523438 6.9375 C 51.382812 6.640625 50.226562 6.5 49.046875 6.511719 C 47.871094 6.519531 46.714844 6.683594 45.582031 7 C 44.445312 7.316406 43.375 7.773438 42.359375 8.375 C 41.347656 8.972656 40.429688 9.695312 39.609375 10.535156 C 39.269531 9.75 38.867188 9.003906 38.398438 8.289062 C 37.929688 7.574219 37.402344 6.902344 36.820312 6.277344 C 36.234375 5.652344 35.605469 5.082031 34.921875 4.566406 C 34.242188 4.050781 33.519531 3.59375 32.761719 3.199219 C 32 2.808594 31.214844 2.480469 30.398438 2.222656 C 29.582031 1.960938 28.75 1.773438 27.902344 1.65625 C 27.054688 1.539062 26.203125 1.496094 25.347656 1.523438 C 24.492188 1.550781 23.644531 1.652344 22.804688 1.824219 C 21.96875 2 21.148438 2.242188 20.351562 2.554688 C 19.554688 2.867188 18.792969 3.242188 18.058594 3.6875 C 17.328125 4.128906 16.640625 4.632812 15.992188 5.191406 C 15.347656 5.753906 14.753906 6.363281 14.214844 7.027344 C 13.671875 7.6875 13.195312 8.390625 12.773438 9.136719 C 12.351562 9.878906 12 10.652344 11.710938 11.457031 C 11.425781 12.261719 11.207031 13.085938 11.0625 13.925781 C 10.917969 14.769531 10.84375 15.617188 10.84375 16.46875 C 10.835938 16.632812 10.835938 16.792969 10.84375 16.953125 C 10.140625 17.140625 9.453125 17.386719 8.789062 17.6875 C 8.125 17.984375 7.488281 18.335938 6.878906 18.738281 C 6.273438 19.144531 5.703125 19.589844 5.167969 20.085938 C 4.632812 20.582031 4.140625 21.117188 3.691406 21.691406 C 3.242188 22.265625 2.84375 22.871094 2.496094 23.511719 C 2.144531 24.148438 1.847656 24.8125 1.609375 25.5 C 1.367188 26.183594 1.179688 26.886719 1.050781 27.601562 C 0.925781 28.320312 0.855469 29.042969 0.84375 29.769531 L 0.84375 29.9375 C 0.871094 30.925781 0.996094 31.902344 1.214844 32.867188 C 1.433594 33.832031 1.742188 34.765625 2.144531 35.667969 C 2.546875 36.574219 3.03125 37.429688 3.601562 38.242188 C 4.167969 39.050781 4.808594 39.796875 5.523438 40.484375 C 6.238281 41.167969 7.015625 41.777344 7.847656 42.3125 C 8.683594 42.847656 9.558594 43.296875 10.480469 43.664062 C 11.402344 44.027344 12.351562 44.296875 13.328125 44.476562 C 14.300781 44.660156 15.285156 44.742188 16.277344 44.730469 L 64.175781 44.730469 C 64.832031 44.730469 65.484375 44.667969 66.128906 44.539062 C 66.773438 44.410156 67.398438 44.222656 68.003906 43.972656 C 68.609375 43.722656 69.1875 43.414062 69.734375 43.050781 C 70.277344 42.6875 70.785156 42.273438 71.25 41.808594 C 71.710938 41.347656 72.128906 40.84375 72.492188 40.296875 C 72.855469 39.753906 73.164062 39.179688 73.414062 38.574219 C 73.667969 37.96875 73.855469 37.34375 73.984375 36.703125 C 74.113281 36.0625 74.175781 35.410156 74.175781 34.757812 C 74.210938 33.953125 74.160156 33.152344 74.035156 32.355469 C 73.90625 31.5625 73.703125 30.785156 73.417969 30.03125 C 73.136719 29.277344 72.78125 28.558594 72.355469 27.875 C 71.929688 27.191406 71.441406 26.554688 70.886719 25.96875 C 70.332031 25.382812 69.726562 24.855469 69.070312 24.390625 C 68.410156 23.921875 67.714844 23.527344 66.976562 23.199219 C 66.238281 22.871094 65.472656 22.621094 64.6875 22.445312 C 63.898438 22.269531 63.101562 22.171875 62.292969 22.15625 Z M 62.292969 22.15625 " fill-opacity="1" fill-rule="nonzero"/></g></svg>